<svg width="40" height="40" viewBox="0 0 40 40" fill="none" xmlns="http://www.w3.org/2000/svg">
<mask id="mask0_362_1058" style="mask-type:alpha" maskUnits="userSpaceOnUse" x="0" y="0" width="40" height="40">
<rect width="40" height="40" fill="#D9D9D9"/>
</mask>
<g mask="url(#mask0_362_1058)">
<path d="M8.45801 35.833C7.73601 35.833 7.11801 35.576 6.60401 35.062C6.09001 34.5487 5.83301 33.9307 5.83301 33.208V9.70801C5.83301 8.98601 6.09001 8.36801 6.60401 7.85401C7.11801 7.34001 7.73601 7.08301 8.45801 7.08301H11.25V3.95801H13.5V7.08301H26.542V3.95801H28.75V7.08301H31.542C32.264 7.08301 32.882 7.34001 33.396 7.85401C33.91 8.36801 34.167 8.98601 34.167 9.70801V33.208C34.167 33.9307 33.91 34.5487 33.396 35.062C32.882 35.576 32.264 35.833 31.542 35.833H8.45801ZM8.45801 33.75H31.542C31.6807 33.75 31.8057 33.6943 31.917 33.583C32.0277 33.4723 32.083 33.3473 32.083 33.208V16.958H7.91701V33.208C7.91701 33.3473 7.97234 33.4723 8.08301 33.583C8.19434 33.6943 8.31934 33.75 8.45801 33.75ZM7.91701 14.875H32.083V9.70801C32.083 9.56934 32.0277 9.45134 31.917 9.35401C31.8057 9.25667 31.6807 9.20801 31.542 9.20801H8.45801C8.31934 9.20801 8.19434 9.25667 8.08301 9.35401C7.97234 9.45134 7.91701 9.56934 7.91701 9.70801V14.875Z" fill="#315C57"/>
</g>
</svg>
