<svg width="40" height="40" viewBox="0 0 40 40" fill="none" xmlns="http://www.w3.org/2000/svg">
<mask id="mask0_221_323" style="mask-type:alpha" maskUnits="userSpaceOnUse" x="0" y="0" width="40" height="40">
<rect width="40" height="40" fill="#D9D9D9"/>
</mask>
<g mask="url(#mask0_221_323)">
<path d="M4.16699 35.083V6.79199C4.16699 6.06933 4.42399 5.45133 4.93799 4.93799C5.45133 4.42399 6.06933 4.16699 6.79199 4.16699H33.208C33.9307 4.16699 34.5487 4.42399 35.062 4.93799C35.576 5.45133 35.833 6.06933 35.833 6.79199V26.542C35.833 27.264 35.576 27.882 35.062 28.396C34.5487 28.91 33.9307 29.167 33.208 29.167H10.083L4.16699 35.083ZM6.24999 30L9.16699 27.083H33.208C33.3747 27.083 33.5067 27.0347 33.604 26.938C33.7013 26.8407 33.75 26.7087 33.75 26.542V6.79199C33.75 6.62533 33.7013 6.49333 33.604 6.39599C33.5067 6.29866 33.3747 6.24999 33.208 6.24999H6.79199C6.62533 6.24999 6.49333 6.29866 6.39599 6.39599C6.29866 6.49333 6.24999 6.62533 6.24999 6.79199V30ZM6.24999 6.79199V6.24999V30V6.79199Z" fill="#1C1B1F"/>
</g>
</svg>
