<svg width="40" height="40" viewBox="0 0 40 40" fill="none" xmlns="http://www.w3.org/2000/svg">
<mask id="mask0_376_481" style="mask-type:alpha" maskUnits="userSpaceOnUse" x="0" y="0" width="40" height="40">
<rect width="40" height="40" fill="#D9D9D9"/>
</mask>
<g mask="url(#mask0_376_481)">
<path d="M3.3335 40.0001V33.3334H36.6668V40.0001H3.3335ZM6.66683 30.0001V23.7501L21.7502 8.66676L28.0002 14.9168L12.9168 30.0001H6.66683ZM10.0002 26.6668H11.5002L23.3335 14.9168L21.7502 13.3334L10.0002 25.1668V26.6668ZM29.8752 13.0834L23.6252 6.83343L26.6252 3.83343C26.9307 3.5001 27.3196 3.3401 27.7918 3.35343C28.264 3.36787 28.6529 3.52787 28.9585 3.83343L32.8752 7.7501C33.1807 8.05565 33.3335 8.43787 33.3335 8.89676C33.3335 9.35454 33.1807 9.7501 32.8752 10.0834L29.8752 13.0834Z" fill="#1C1B1F"/>
</g>
</svg>
