<svg width="40" height="40" viewBox="0 0 40 40" fill="none" xmlns="http://www.w3.org/2000/svg">
<mask id="mask0_221_332" style="mask-type:alpha" maskUnits="userSpaceOnUse" x="0" y="0" width="40" height="40">
<rect width="40" height="40" fill="#D9D9D9"/>
</mask>
<g mask="url(#mask0_221_332)">
<path d="M6.79199 35.833C6.06933 35.833 5.45133 35.576 4.93799 35.062C4.42399 34.5487 4.16699 33.9307 4.16699 33.208V15.125C4.16699 14.403 4.42399 13.785 4.93799 13.271C5.45133 12.757 6.06933 12.5 6.79199 12.5H16.167V6.24999C16.167 5.69466 16.3753 5.20866 16.792 4.79199C17.2087 4.37533 17.7087 4.16699 18.292 4.16699H21.75C22.3333 4.16699 22.8263 4.37533 23.229 4.79199C23.6317 5.20866 23.833 5.69466 23.833 6.24999V12.5H33.208C33.9307 12.5 34.5487 12.757 35.062 13.271C35.576 13.785 35.833 14.403 35.833 15.125V33.208C35.833 33.9307 35.576 34.5487 35.062 35.062C34.5487 35.576 33.9307 35.833 33.208 35.833H6.79199ZM6.79199 33.75H33.208C33.3747 33.75 33.5067 33.7013 33.604 33.604C33.7013 33.5067 33.75 33.3747 33.75 33.208V15.125C33.75 14.9583 33.7013 14.8263 33.604 14.729C33.5067 14.6317 33.3747 14.583 33.208 14.583H23.833C23.833 15.2777 23.611 15.8057 23.167 16.167C22.7223 16.5277 22.1667 16.708 21.5 16.708H18.5C17.8333 16.708 17.2777 16.5277 16.833 16.167C16.389 15.8057 16.167 15.2777 16.167 14.583H6.79199C6.62533 14.583 6.49333 14.6317 6.39599 14.729C6.29866 14.8263 6.24999 14.9583 6.24999 15.125V33.208C6.24999 33.3747 6.29866 33.5067 6.39599 33.604C6.49333 33.7013 6.62533 33.75 6.79199 33.75ZM10.083 29.375H19.542V28.958C19.542 28.514 19.4307 28.1183 19.208 27.771C18.986 27.4237 18.6807 27.1667 18.292 27C17.5973 26.722 16.986 26.5347 16.458 26.438C15.9307 26.3407 15.403 26.292 14.875 26.292C14.3197 26.292 13.7573 26.3473 13.188 26.458C12.618 26.5693 12.0137 26.75 11.375 27C10.9863 27.1667 10.674 27.4237 10.438 27.771C10.2013 28.1183 10.083 28.514 10.083 28.958V29.375ZM23.5 26.708H30.375V24.917H23.5V26.708ZM14.875 24.917C15.4583 24.917 15.9583 24.7087 16.375 24.292C16.7917 23.8753 17 23.3753 17 22.792C17 22.2087 16.7917 21.7087 16.375 21.292C15.9583 20.8753 15.4583 20.667 14.875 20.667C14.2917 20.667 13.7917 20.8753 13.375 21.292C12.9583 21.7087 12.75 22.2087 12.75 22.792C12.75 23.3753 12.9583 23.8753 13.375 24.292C13.7917 24.7087 14.2917 24.917 14.875 24.917ZM23.5 22.375H30.375V20.583H23.5V22.375ZM18.292 14.583H21.75V6.24999H18.292V14.583Z" fill="#1C1B1F"/>
</g>
</svg>
