<svg width="62" height="64" viewBox="0 0 62 64" fill="none" xmlns="http://www.w3.org/2000/svg">
<ellipse cx="31" cy="32" rx="31" ry="32" fill="#315C57"/>
<mask id="mask0_248_347" style="mask-type:alpha" maskUnits="userSpaceOnUse" x="11" y="12" width="40" height="40">
<rect x="11" y="12" width="40" height="40" fill="#D9D9D9"/>
</mask>
<g mask="url(#mask0_248_347)">
<path d="M20.417 44.583C19.139 44.583 18.0487 44.1317 17.146 43.229C16.2433 42.3263 15.792 41.2223 15.792 39.917H13.25V22.125C13.25 21.403 13.507 20.785 14.021 20.271C14.535 19.757 15.139 19.5 15.833 19.5H38.917V26H43.042L48.75 33.625V39.917H45.917C45.917 41.2223 45.4653 42.3263 44.562 43.229C43.6593 44.1317 42.5693 44.583 41.292 44.583C39.986 44.583 38.8887 44.1317 38 43.229C37.1113 42.3263 36.667 41.2223 36.667 39.917H25.042C25.042 41.2223 24.5907 42.3263 23.688 43.229C22.7847 44.1317 21.6943 44.583 20.417 44.583ZM20.417 42.5C21.139 42.5 21.743 42.25 22.229 41.75C22.715 41.25 22.958 40.6527 22.958 39.958C22.958 39.236 22.715 38.625 22.229 38.125C21.743 37.625 21.139 37.375 20.417 37.375C19.7223 37.375 19.125 37.625 18.625 38.125C18.125 38.625 17.875 39.236 17.875 39.958C17.875 40.6527 18.125 41.25 18.625 41.75C19.125 42.25 19.7223 42.5 20.417 42.5ZM41.292 42.5C41.986 42.5 42.583 42.25 43.083 41.75C43.583 41.25 43.833 40.6527 43.833 39.958C43.833 39.236 43.583 38.625 43.083 38.125C42.583 37.625 41.986 37.375 41.292 37.375C40.5693 37.375 39.965 37.625 39.479 38.125C38.993 38.625 38.75 39.236 38.75 39.958C38.75 40.6527 38.993 41.25 39.479 41.75C39.965 42.25 40.5693 42.5 41.292 42.5ZM38.917 34.375H46.708L41.958 28.083H38.917V34.375Z" fill="white"/>
</g>
</svg>
