<svg width="71" height="70" viewBox="0 0 71 70" fill="none" xmlns="http://www.w3.org/2000/svg">
<g filter="url(#filter0_d_402_922)">
<rect x="4" width="63" height="62" rx="20" fill="#FCFBFF"/>
</g>
<mask id="mask0_402_922" style="mask-type:alpha" maskUnits="userSpaceOnUse" x="16" y="5" width="51" height="51">
<rect x="16" y="5" width="51" height="51" fill="#D9D9D9"/>
</mask>
<g mask="url(#mask0_402_922)">
<path d="M50 28.375V24.125H62.75V28.375H50ZM35.125 30.5C32.7875 30.5 30.7865 29.6677 29.1219 28.0031C27.4573 26.3385 26.625 24.3375 26.625 22C26.625 19.6625 27.4573 17.6615 29.1219 15.9969C30.7865 14.3323 32.7875 13.5 35.125 13.5C37.4625 13.5 39.4635 14.3323 41.1281 15.9969C42.7927 17.6615 43.625 19.6625 43.625 22C43.625 24.3375 42.7927 26.3385 41.1281 28.0031C39.4635 29.6677 37.4625 30.5 35.125 30.5ZM18.125 47.5V41.55C18.125 40.3458 18.4352 39.2387 19.0557 38.2286C19.6748 37.22 20.4979 36.45 21.525 35.9188C23.7208 34.8208 25.9521 33.997 28.2188 33.4474C30.4854 32.8991 32.7875 32.625 35.125 32.625C37.4625 32.625 39.7646 32.8991 42.0312 33.4474C44.2979 33.997 46.5292 34.8208 48.725 35.9188C49.7521 36.45 50.5752 37.22 51.1943 38.2286C51.8148 39.2387 52.125 40.3458 52.125 41.55V47.5H18.125Z" fill="#1C1B1F"/>
</g>
<defs>
<filter id="filter0_d_402_922" x="0" y="0" width="71" height="70" filterUnits="userSpaceOnUse" color-interpolation-filters="sRGB">
<feFlood flood-opacity="0" result="BackgroundImageFix"/>
<feColorMatrix in="SourceAlpha" type="matrix" values="0 0 0 0 0 0 0 0 0 0 0 0 0 0 0 0 0 0 127 0" result="hardAlpha"/>
<feOffset dy="4"/>
<feGaussianBlur stdDeviation="2"/>
<feComposite in2="hardAlpha" operator="out"/>
<feColorMatrix type="matrix" values="0 0 0 0 0 0 0 0 0 0 0 0 0 0 0 0 0 0 0.25 0"/>
<feBlend mode="normal" in2="BackgroundImageFix" result="effect1_dropShadow_402_922"/>
<feBlend mode="normal" in="SourceGraphic" in2="effect1_dropShadow_402_922" result="shape"/>
</filter>
</defs>
</svg>
