<svg width="62" height="64" viewBox="0 0 62 64" fill="none" xmlns="http://www.w3.org/2000/svg">
<ellipse cx="31" cy="32" rx="31" ry="32" fill="#315C57"/>
<mask id="mask0_235_768" style="mask-type:alpha" maskUnits="userSpaceOnUse" x="11" y="12" width="40" height="40">
<rect x="11" y="12" width="40" height="40" fill="#D9D9D9"/>
</mask>
<g mask="url(#mask0_235_768)">
<path d="M27.5 47.833L26.792 42.792C26.264 42.6253 25.7013 42.3753 25.104 42.042C24.5067 41.7087 23.986 41.3473 23.542 40.958L18.875 43.042L15.375 36.875L19.542 33.792C19.486 33.514 19.4513 33.2153 19.438 32.896C19.424 32.5767 19.417 32.278 19.417 32C19.417 31.75 19.424 31.4653 19.438 31.146C19.4513 30.8267 19.486 30.514 19.542 30.208L15.375 27.125L18.875 21L23.542 23.042C24.014 22.6527 24.5417 22.2983 25.125 21.979C25.7083 21.6597 26.264 21.4027 26.792 21.208L27.5 16.167H34.5L35.208 21.208C35.764 21.4307 36.3197 21.6947 36.875 22C37.4303 22.3053 37.9303 22.6527 38.375 23.042L43.125 21L46.625 27.125L42.375 30.208C42.4583 30.514 42.507 30.8197 42.521 31.125C42.535 31.4303 42.542 31.722 42.542 32C42.542 32.278 42.528 32.5627 42.5 32.854C42.472 33.146 42.4303 33.4587 42.375 33.792L46.583 36.875L43.083 43.042L38.375 40.917C37.903 41.3337 37.396 41.7087 36.854 42.042C36.3127 42.3753 35.764 42.6253 35.208 42.792L34.5 47.833H27.5ZM30.958 36.792C32.2913 36.792 33.4303 36.3267 34.375 35.396C35.3197 34.4653 35.792 33.3333 35.792 32C35.792 30.6667 35.3197 29.5347 34.375 28.604C33.4303 27.6733 32.2913 27.208 30.958 27.208C29.6247 27.208 28.4927 27.6733 27.562 28.604C26.632 29.5347 26.167 30.6667 26.167 32C26.167 33.3333 26.632 34.4653 27.562 35.396C28.4927 36.3267 29.6247 36.792 30.958 36.792Z" fill="white"/>
</g>
</svg>
