<svg width="40" height="40" viewBox="0 0 40 40" fill="none" xmlns="http://www.w3.org/2000/svg">
<mask id="mask0_221_341" style="mask-type:alpha" maskUnits="userSpaceOnUse" x="0" y="0" width="40" height="40">
<rect width="40" height="40" fill="#D9D9D9"/>
</mask>
<g mask="url(#mask0_221_341)">
<path d="M16.5 35.833L15.792 30.792C15.264 30.6253 14.7013 30.3753 14.104 30.042C13.5067 29.7087 12.986 29.3473 12.542 28.958L7.875 31.042L4.375 24.875L8.542 21.792C8.486 21.514 8.45133 21.2153 8.438 20.896C8.424 20.5767 8.417 20.278 8.417 20C8.417 19.75 8.424 19.4653 8.438 19.146C8.45133 18.8267 8.486 18.514 8.542 18.208L4.375 15.125L7.875 8.99999L12.542 11.042C13.014 10.6527 13.5417 10.2983 14.125 9.97899C14.7083 9.65966 15.264 9.40266 15.792 9.20799L16.5 4.16699H23.5L24.208 9.20799C24.764 9.43066 25.3197 9.69466 25.875 9.99999C26.4303 10.3053 26.9303 10.6527 27.375 11.042L32.125 8.99999L35.625 15.125L31.375 18.208C31.4583 18.514 31.507 18.8197 31.521 19.125C31.535 19.4303 31.542 19.722 31.542 20C31.542 20.278 31.528 20.5627 31.5 20.854C31.472 21.146 31.4303 21.4587 31.375 21.792L35.583 24.875L32.083 31.042L27.375 28.917C26.903 29.3337 26.396 29.7087 25.854 30.042C25.3127 30.3753 24.764 30.6253 24.208 30.792L23.5 35.833H16.5ZM19.958 24.792C21.2913 24.792 22.4303 24.3267 23.375 23.396C24.3197 22.4653 24.792 21.3333 24.792 20C24.792 18.6667 24.3197 17.5347 23.375 16.604C22.4303 15.6733 21.2913 15.208 19.958 15.208C18.6247 15.208 17.4927 15.6733 16.562 16.604C15.632 17.5347 15.167 18.6667 15.167 20C15.167 21.3333 15.632 22.4653 16.562 23.396C17.4927 24.3267 18.6247 24.792 19.958 24.792ZM19.958 22.708C19.208 22.708 18.576 22.4443 18.062 21.917C17.5487 21.389 17.292 20.75 17.292 20C17.292 19.25 17.5487 18.611 18.062 18.083C18.576 17.5557 19.208 17.292 19.958 17.292C20.736 17.292 21.382 17.5557 21.896 18.083C22.41 18.611 22.667 19.25 22.667 20C22.667 20.75 22.41 21.389 21.896 21.917C21.382 22.4443 20.736 22.708 19.958 22.708ZM18.25 33.75H21.708L22.333 29.167C23.1943 28.9443 24 28.618 24.75 28.188C25.5 27.7573 26.2083 27.2087 26.875 26.542L31.167 28.375L32.833 25.458L29.042 22.667C29.1807 22.1943 29.2777 21.7427 29.333 21.312C29.389 20.882 29.417 20.4447 29.417 20C29.417 19.5553 29.389 19.1247 29.333 18.708C29.2777 18.2913 29.1807 17.847 29.042 17.375L32.875 14.542L31.208 11.625L26.875 13.5C26.2917 12.8613 25.5973 12.292 24.792 11.792C23.986 11.292 23.1527 10.9723 22.292 10.833L21.75 6.24999H18.25L17.708 10.833C16.8193 11.0277 15.993 11.3403 15.229 11.771C14.465 12.2017 13.7497 12.764 13.083 13.458L8.792 11.625L7.125 14.542L10.917 17.333C10.7777 17.7497 10.6803 18.1803 10.625 18.625C10.5697 19.0697 10.542 19.528 10.542 20C10.542 20.472 10.5697 20.9233 10.625 21.354C10.6803 21.7847 10.7637 22.2223 10.875 22.667L7.125 25.458L8.792 28.375L13.083 26.542C13.7223 27.2087 14.424 27.7573 15.188 28.188C15.9513 28.618 16.7913 28.9443 17.708 29.167L18.25 33.75Z" fill="#1C1B1F"/>
</g>
</svg>
