<svg width="70" height="70" viewBox="0 0 70 70" fill="none" xmlns="http://www.w3.org/2000/svg">
<circle cx="35" cy="35" r="35" fill="#93CAAC"/>
<mask id="mask0_275_414" style="mask-type:alpha" maskUnits="userSpaceOnUse" x="12" y="12" width="46" height="46">
<rect x="12.8945" y="12.8947" width="44.2105" height="44.2105" fill="#D9D9D9"/>
</mask>
<g mask="url(#mask0_275_414)">
<path d="M25.7895 38.3158C26.2193 38.3158 26.5724 38.1776 26.8487 37.9013C27.125 37.625 27.2632 37.2719 27.2632 36.8421C27.2632 36.4123 27.125 36.0592 26.8487 35.7829C26.5724 35.5066 26.2193 35.3684 25.7895 35.3684C25.3596 35.3684 25.0066 35.5066 24.7303 35.7829C24.4539 36.0592 24.3158 36.4123 24.3158 36.8421C24.3158 37.2719 24.4539 37.625 24.7303 37.9013C25.0066 38.1776 25.3596 38.3158 25.7895 38.3158ZM25.7895 30.9474C26.2193 30.9474 26.5724 30.8092 26.8487 30.5329C27.125 30.2566 27.2632 29.9035 27.2632 29.4737C27.2632 29.0439 27.125 28.6908 26.8487 28.4145C26.5724 28.1382 26.2193 28 25.7895 28C25.3596 28 25.0066 28.1382 24.7303 28.4145C24.4539 28.6908 24.3158 29.0439 24.3158 29.4737C24.3158 29.9035 24.4539 30.2566 24.7303 30.5329C25.0066 30.8092 25.3596 30.9474 25.7895 30.9474ZM29.5658 38.2237H45.5921V35.4605H29.5658V38.2237ZM29.5658 30.8553H45.5921V28.0921H29.5658V30.8553ZM28.5526 50.6579V46.9737H20.8158C19.8947 46.9737 19.1118 46.6513 18.4671 46.0066C17.8224 45.3618 17.5 44.5789 17.5 43.6579V22.6579C17.5 21.7368 17.8224 20.9539 18.4671 20.3092C19.1118 19.6645 19.8947 19.3421 20.8158 19.3421H49.1842C50.1053 19.3421 50.8882 19.6645 51.5329 20.3092C52.1776 20.9539 52.5 21.7368 52.5 22.6579V43.6579C52.5 44.5789 52.1776 45.3618 51.5329 46.0066C50.8882 46.6513 50.1053 46.9737 49.1842 46.9737H41.4474V50.6579H28.5526Z" fill="#EAF9F3"/>
</g>
</svg>