<svg width="112" height="444" viewBox="0 0 112 444" fill="none" xmlns="http://www.w3.org/2000/svg">
<path d="M0 0H112V444H20C8.9543 444 0 435.046 0 424V0Z" fill="#EAF9F3"/>
<mask id="mask0_362_1171" style="mask-type:alpha" maskUnits="userSpaceOnUse" x="36" y="202" width="40" height="40">
<rect x="36" y="202" width="40" height="40" fill="#315C57"/>
</mask>
<g mask="url(#mask0_362_1171)">
<path d="M44.458 236.167C43.736 236.167 43.118 235.91 42.604 235.396C42.09 234.882 41.833 234.264 41.833 233.542V210.458C41.833 209.736 42.09 209.118 42.604 208.604C43.118 208.09 43.736 207.833 44.458 207.833H52.625C52.625 206.916 52.9513 206.132 53.604 205.479C54.2567 204.826 55.0553 204.5 56 204.5C56.972 204.5 57.7847 204.826 58.438 205.479C59.0907 206.132 59.403 206.916 59.375 207.833H67.542C68.264 207.833 68.882 208.09 69.396 208.604C69.91 209.118 70.167 209.736 70.167 210.458V233.542C70.167 234.264 69.91 234.882 69.396 235.396C68.882 235.91 68.264 236.167 67.542 236.167H44.458ZM48.083 229.708H58.792V227.625H48.083V229.708ZM48.083 223.042H63.917V220.958H48.083V223.042ZM48.083 216.375H63.917V214.292H48.083V216.375ZM56 209.083C56.3613 209.083 56.6807 208.958 56.958 208.708C57.236 208.458 57.375 208.139 57.375 207.75C57.375 207.361 57.236 207.042 56.958 206.792C56.6807 206.542 56.3613 206.417 56 206.417C55.6387 206.417 55.326 206.542 55.062 206.792C54.7987 207.042 54.667 207.361 54.667 207.75C54.667 208.139 54.7987 208.458 55.062 208.708C55.326 208.958 55.6387 209.083 56 209.083Z" fill="#315C57"/>
</g>
</svg>
