<svg width="112" height="444" viewBox="0 0 112 444" fill="none" xmlns="http://www.w3.org/2000/svg">
<path d="M0 20C0 8.95429 8.95431 0 20 0H112V444H0V20Z" fill="#315C57"/>
<mask id="mask0_362_1172" style="mask-type:alpha" maskUnits="userSpaceOnUse" x="36" y="202" width="40" height="40">
<rect x="36" y="202" width="40" height="40" fill="#D9D9D9"/>
</mask>
<g mask="url(#mask0_362_1172)">
<path d="M44.458 237.833C43.736 237.833 43.118 237.576 42.604 237.062C42.09 236.549 41.833 235.931 41.833 235.208V211.708C41.833 210.986 42.09 210.368 42.604 209.854C43.118 209.34 43.736 209.083 44.458 209.083H47.25V205.958H49.5V209.083H62.542V205.958H64.75V209.083H67.542C68.264 209.083 68.882 209.34 69.396 209.854C69.91 210.368 70.167 210.986 70.167 211.708V235.208C70.167 235.931 69.91 236.549 69.396 237.062C68.882 237.576 68.264 237.833 67.542 237.833H44.458ZM44.458 235.75H67.542C67.6807 235.75 67.8057 235.694 67.917 235.583C68.0277 235.472 68.083 235.347 68.083 235.208V218.958H43.917V235.208C43.917 235.347 43.9723 235.472 44.083 235.583C44.1943 235.694 44.3193 235.75 44.458 235.75Z" fill="#EAF9F3"/>
</g>
</svg>
