<svg width="505" height="379" viewBox="0 0 505 379" fill="none" xmlns="http://www.w3.org/2000/svg">
<g clip-path="url(#clip0_208_90)">
<path d="M377.912 278.97L121.466 271.617C115.7 271.456 110.191 269.198 105.969 265.264C101.748 261.331 99.1044 255.992 98.5343 250.249L86.1559 127.863C85.8263 124.587 86.1803 121.278 87.1954 118.147C88.2105 115.015 89.8646 112.128 92.0529 109.669C94.2412 107.21 96.916 105.233 99.9078 103.863C102.9 102.492 106.143 101.759 109.433 101.708L394.877 97.7603C398.271 97.7144 401.636 98.3964 404.745 99.7604C407.854 101.124 410.635 103.139 412.901 105.668C415.167 108.198 416.865 111.183 417.882 114.424C418.899 117.665 419.21 121.087 418.795 124.458L402.175 258.144C401.453 264.017 398.564 269.408 394.076 273.261C389.587 277.113 383.822 279.149 377.912 278.97Z" fill="#EAF9F3"/>
<path d="M340.974 312.182H545.883C547.845 312.182 549.727 311.402 551.114 310.013C552.501 308.625 553.281 306.742 553.281 304.779V188.513C553.281 186.55 552.501 184.667 551.114 183.279C549.727 181.891 547.845 181.111 545.883 181.111H340.974C339.012 181.111 337.13 181.891 335.743 183.279C334.356 184.667 333.576 186.55 333.576 188.513V304.779C333.576 306.742 334.356 308.625 335.743 310.013C337.13 311.402 339.012 312.182 340.974 312.182Z" stroke="#93CAAD" stroke-width="1.8" stroke-linecap="round" stroke-linejoin="round"/>
<path d="M70.1772 304.384H276.862C278.824 304.384 280.706 303.605 282.093 302.216C283.48 300.828 284.26 298.945 284.26 296.982V127.074C284.26 125.11 283.48 123.228 282.093 121.839C280.706 120.451 278.824 119.671 276.862 119.671H70.1772C68.2153 119.671 66.3337 120.451 64.9465 121.839C63.5592 123.228 62.7798 125.11 62.7798 127.074V296.982C62.7798 298.945 63.5592 300.828 64.9465 302.216C66.3337 303.605 68.2153 304.384 70.1772 304.384Z" stroke="#93CAAD" stroke-width="1.8" stroke-linecap="round" stroke-linejoin="round"/>
<path d="M352.119 181.061H362.13C362.652 181.063 363.156 180.873 363.547 180.527C363.938 180.181 364.188 179.704 364.251 179.186L365.04 172.08C365.072 171.782 365.042 171.48 364.95 171.194C364.858 170.909 364.708 170.646 364.508 170.422C364.308 170.199 364.063 170.02 363.789 169.897C363.515 169.775 363.219 169.711 362.919 169.711H351.33C351.03 169.712 350.734 169.776 350.461 169.899C350.188 170.022 349.943 170.2 349.743 170.424C349.544 170.647 349.393 170.91 349.301 171.195C349.209 171.48 349.178 171.782 349.209 172.08L349.998 179.186C350.061 179.704 350.312 180.181 350.703 180.527C351.093 180.873 351.597 181.063 352.119 181.061Z" stroke="#93CAAD" stroke-width="1.8" stroke-linecap="round" stroke-linejoin="round"/>
<path d="M358.284 169.76C358.284 169.76 362.229 169.366 363.018 164.036C363.018 164.036 359.467 165.072 358.333 167.589C358.333 167.589 357.84 161.963 355.177 161.42C355.177 161.42 353.993 165.615 355.867 167.688C355.867 167.688 354.437 165.319 350.788 165.368C351.132 166.408 351.726 167.347 352.517 168.104C353.308 168.861 354.272 169.413 355.325 169.711" fill="#93CAAD"/>
<path d="M112.589 171.34H122.601C123.122 171.341 123.626 171.151 124.017 170.805C124.408 170.46 124.659 169.982 124.721 169.464L125.51 162.358C125.543 162.06 125.512 161.758 125.421 161.473C125.329 161.187 125.178 160.924 124.978 160.7C124.778 160.477 124.533 160.298 124.26 160.176C123.986 160.053 123.69 159.99 123.39 159.989H111.8C111.501 159.99 111.205 160.054 110.932 160.177C110.658 160.3 110.414 160.479 110.214 160.702C110.014 160.925 109.863 161.188 109.771 161.473C109.679 161.759 109.648 162.06 109.68 162.358L110.469 169.464C110.533 169.982 110.784 170.459 111.174 170.804C111.565 171.149 112.068 171.34 112.589 171.34Z" stroke="#93CAAD" stroke-width="1.8" stroke-linecap="round" stroke-linejoin="round"/>
<path d="M118.754 159.989C118.754 159.989 122.699 159.595 123.488 154.265C123.488 154.265 119.937 155.301 118.803 157.818C118.803 157.818 118.31 152.192 115.647 151.649C115.647 151.649 114.463 155.844 116.337 157.917C116.337 157.917 114.907 155.548 111.258 155.597C111.603 156.637 112.196 157.576 112.987 158.333C113.778 159.09 114.742 159.641 115.795 159.94" fill="#93CAAD"/>
<path d="M342.552 205.637H387.035C387.583 205.633 388.108 205.414 388.496 205.026C388.883 204.638 389.103 204.113 389.107 203.564V189.993C389.103 189.445 388.883 188.92 388.496 188.532C388.108 188.144 387.583 187.925 387.035 187.921H342.552C342.004 187.925 341.479 188.144 341.092 188.532C340.704 188.92 340.484 189.445 340.481 189.993V203.515C340.477 203.791 340.528 204.064 340.631 204.32C340.733 204.575 340.885 204.808 341.077 205.005C341.269 205.202 341.499 205.36 341.752 205.468C342.005 205.576 342.277 205.634 342.552 205.637Z" stroke="#93CAAD" stroke-width="1.8" stroke-linecap="round" stroke-linejoin="round"/>
<path d="M359.665 192.757H369.922C370.117 192.752 370.302 192.672 370.44 192.535C370.578 192.397 370.657 192.212 370.662 192.017C370.657 191.822 370.578 191.637 370.44 191.499C370.302 191.361 370.117 191.282 369.922 191.277H359.665C359.47 191.282 359.285 191.361 359.147 191.499C359.009 191.637 358.93 191.822 358.925 192.017C358.93 192.212 359.009 192.397 359.147 192.535C359.285 192.672 359.47 192.752 359.665 192.757Z" fill="#93CAAD"/>
<path d="M342.552 228.239H387.035C387.583 228.235 388.108 228.015 388.495 227.628C388.883 227.24 389.103 226.715 389.106 226.166V212.645C389.103 212.096 388.883 211.571 388.495 211.183C388.108 210.796 387.583 210.576 387.035 210.572H342.552C342.004 210.576 341.479 210.796 341.091 211.183C340.704 211.571 340.484 212.096 340.48 212.645V226.166C340.484 226.715 340.704 227.24 341.091 227.628C341.479 228.015 342.004 228.235 342.552 228.239V228.239Z" stroke="#93CAAD" stroke-width="1.8" stroke-linecap="round" stroke-linejoin="round"/>
<path d="M359.665 215.359H369.922C370.117 215.354 370.302 215.274 370.44 215.137C370.578 214.999 370.657 214.813 370.662 214.619C370.657 214.424 370.578 214.238 370.44 214.101C370.302 213.963 370.117 213.883 369.922 213.878H359.665C359.47 213.883 359.285 213.963 359.147 214.101C359.009 214.238 358.93 214.424 358.925 214.619C358.93 214.813 359.009 214.999 359.147 215.137C359.285 215.274 359.47 215.354 359.665 215.359Z" fill="#93CAAD"/>
<path d="M114.118 244.228H158.602C159.15 244.224 159.674 244.004 160.062 243.617C160.45 243.229 160.669 242.704 160.673 242.155V228.634C160.669 228.085 160.45 227.56 160.062 227.172C159.674 226.785 159.15 226.565 158.602 226.561H114.118C113.57 226.565 113.045 226.785 112.658 227.172C112.27 227.56 112.051 228.085 112.047 228.634V242.155C112.051 242.704 112.27 243.229 112.658 243.617C113.045 244.004 113.57 244.224 114.118 244.228V244.228Z" stroke="#93CAAD" stroke-width="1.8" stroke-linecap="round" stroke-linejoin="round"/>
<path d="M131.28 231.299H141.538C141.733 231.294 141.918 231.214 142.056 231.076C142.193 230.938 142.273 230.753 142.278 230.558C142.273 230.364 142.193 230.178 142.056 230.04C141.918 229.903 141.733 229.823 141.538 229.818H131.28C131.086 229.823 130.9 229.903 130.763 230.04C130.625 230.178 130.545 230.364 130.54 230.558C130.535 230.657 130.55 230.756 130.585 230.848C130.62 230.941 130.675 231.025 130.744 231.095C130.814 231.164 130.898 231.219 130.99 231.254C131.083 231.289 131.182 231.304 131.28 231.299Z" fill="#93CAAD"/>
<path d="M171.227 244.228H215.71C216.258 244.224 216.783 244.004 217.17 243.617C217.558 243.229 217.777 242.704 217.781 242.155V228.634C217.777 228.085 217.558 227.56 217.17 227.172C216.783 226.785 216.258 226.565 215.71 226.561H171.227C170.678 226.565 170.154 226.785 169.766 227.172C169.379 227.56 169.159 228.085 169.155 228.634V242.155C169.159 242.704 169.379 243.229 169.766 243.617C170.154 244.004 170.678 244.224 171.227 244.228V244.228Z" stroke="#93CAAD" stroke-width="1.8" stroke-linecap="round" stroke-linejoin="round"/>
<path d="M188.389 231.299H198.646C198.841 231.294 199.026 231.214 199.164 231.076C199.302 230.938 199.381 230.753 199.386 230.558C199.381 230.364 199.302 230.178 199.164 230.04C199.026 229.903 198.841 229.823 198.646 229.818H188.389C188.194 229.823 188.009 229.903 187.871 230.04C187.733 230.178 187.654 230.364 187.649 230.558C187.643 230.657 187.658 230.756 187.694 230.848C187.729 230.941 187.783 231.025 187.853 231.095C187.923 231.164 188.007 231.219 188.099 231.254C188.191 231.289 188.29 231.304 188.389 231.299Z" fill="#93CAAD"/>
<path d="M399.266 205.637H443.749C444.297 205.633 444.822 205.414 445.21 205.026C445.597 204.638 445.817 204.113 445.82 203.564V189.993C445.817 189.445 445.597 188.92 445.21 188.532C444.822 188.144 444.297 187.925 443.749 187.921H399.266C398.718 187.925 398.193 188.144 397.805 188.532C397.418 188.92 397.198 189.445 397.194 189.993V203.515C397.191 203.791 397.242 204.064 397.345 204.32C397.447 204.575 397.599 204.808 397.791 205.005C397.983 205.202 398.212 205.36 398.466 205.468C398.719 205.576 398.99 205.634 399.266 205.637Z" stroke="#93CAAD" stroke-width="1.8" stroke-linecap="round" stroke-linejoin="round"/>
<path d="M416.378 192.757H426.636C426.831 192.752 427.016 192.672 427.154 192.535C427.291 192.397 427.371 192.212 427.376 192.017C427.371 191.822 427.291 191.637 427.154 191.499C427.016 191.361 426.831 191.282 426.636 191.277H416.378C416.184 191.282 415.999 191.361 415.861 191.499C415.723 191.637 415.644 191.822 415.639 192.017C415.644 192.212 415.723 192.397 415.861 192.535C415.999 192.672 416.184 192.752 416.378 192.757Z" fill="#93CAAD"/>
<path d="M399.266 228.239H443.749C444.297 228.235 444.822 228.015 445.209 227.628C445.597 227.24 445.816 226.715 445.82 226.166V212.645C445.816 212.096 445.597 211.571 445.209 211.183C444.822 210.796 444.297 210.576 443.749 210.572H399.266C398.717 210.576 398.193 210.796 397.805 211.183C397.418 211.571 397.198 212.096 397.194 212.645V226.166C397.198 226.715 397.418 227.24 397.805 227.628C398.193 228.015 398.717 228.235 399.266 228.239V228.239Z" stroke="#93CAAD" stroke-width="1.8" stroke-linecap="round" stroke-linejoin="round"/>
<path d="M416.378 215.359H426.636C426.831 215.354 427.016 215.274 427.154 215.137C427.291 214.999 427.371 214.813 427.376 214.619C427.371 214.424 427.291 214.238 427.154 214.101C427.016 213.963 426.831 213.883 426.636 213.878H416.378C416.184 213.883 415.999 213.963 415.861 214.101C415.723 214.238 415.644 214.424 415.639 214.619C415.644 214.813 415.723 214.999 415.861 215.137C415.999 215.274 416.184 215.354 416.378 215.359Z" fill="#93CAAD"/>
<path d="M49.3657 171.389H273.755C274.355 171.383 274.928 171.141 275.352 170.717C275.776 170.293 276.018 169.719 276.024 169.119V129.788C276.018 129.188 275.776 128.614 275.352 128.19C274.928 127.765 274.355 127.524 273.755 127.518H49.3657C48.7661 127.524 48.1928 127.765 47.7687 128.19C47.3447 128.614 47.1036 129.188 47.0972 129.788V169.119C47.0965 169.417 47.1548 169.713 47.2685 169.988C47.3823 170.264 47.5494 170.515 47.7602 170.725C47.971 170.936 48.2213 171.104 48.4968 171.217C48.7723 171.331 49.0676 171.39 49.3657 171.389V171.389Z" stroke="#93CAAD" stroke-width="1.8" stroke-linecap="round" stroke-linejoin="round"/>
<path d="M49.3657 220.244H273.755C274.355 220.238 274.928 219.997 275.352 219.572C275.776 219.148 276.018 218.574 276.024 217.974V178.643C276.018 178.043 275.776 177.469 275.352 177.045C274.928 176.621 274.355 176.38 273.755 176.373H49.3657C48.7661 176.38 48.1928 176.621 47.7687 177.045C47.3446 177.469 47.1036 178.043 47.0972 178.643V217.974C47.1036 218.574 47.3446 219.148 47.7687 219.572C48.1928 219.997 48.7661 220.238 49.3657 220.244V220.244Z" stroke="#93CAAD" stroke-width="1.8" stroke-linecap="round" stroke-linejoin="round"/>
<path d="M260.948 146.611H256.065V171.433H260.948V146.611Z" stroke="#93CAAD" stroke-width="1.8" stroke-linecap="round" stroke-linejoin="round"/>
<path d="M256.046 153.327H250.966V171.389H256.046V153.327Z" stroke="#93CAAD" stroke-width="1.8" stroke-linecap="round" stroke-linejoin="round"/>
<path d="M113.798 195.338H108.915V220.161H113.798V195.338Z" stroke="#93CAAD" stroke-width="1.8" stroke-linecap="round" stroke-linejoin="round"/>
<path d="M108.896 202.104H103.816V220.165H108.896V202.104Z" stroke="#93CAAD" stroke-width="1.8" stroke-linecap="round" stroke-linejoin="round"/>
<path d="M123.705 195.338H118.823V220.161H123.705V195.338Z" stroke="#93CAAD" stroke-width="1.8" stroke-linecap="round" stroke-linejoin="round"/>
<path d="M128.281 194.826L123.625 196.297L131.093 219.968L135.748 218.497L128.281 194.826Z" stroke="#93CAAD" stroke-width="1.8" stroke-linecap="round" stroke-linejoin="round"/>
<path d="M118.853 202.104H113.773V220.165H118.853V202.104Z" stroke="#93CAAD" stroke-width="1.8" stroke-linecap="round" stroke-linejoin="round"/>
<path d="M216.943 149.823L216.4 142.47C216.39 142.355 216.404 142.239 216.441 142.13C216.479 142.021 216.54 141.921 216.619 141.837C216.698 141.753 216.795 141.687 216.901 141.643C217.008 141.599 217.123 141.578 217.239 141.582H221.48C221.594 141.583 221.707 141.606 221.812 141.652C221.916 141.697 222.011 141.764 222.089 141.847C222.168 141.93 222.228 142.028 222.268 142.135C222.307 142.242 222.324 142.356 222.318 142.47L221.776 149.823C221.776 149.823 226.214 152.686 226.165 155.054C226.116 156.88 225.031 165.615 224.538 169.464C224.475 169.982 224.224 170.46 223.833 170.805C223.442 171.151 222.939 171.341 222.417 171.34H216.302C215.78 171.341 215.276 171.151 214.885 170.805C214.494 170.46 214.244 169.982 214.181 169.464C213.688 165.615 212.603 156.88 212.554 155.054C212.504 152.686 216.943 149.823 216.943 149.823Z" fill="#93CAAD"/>
<path d="M195.145 149.823L194.602 142.47C194.592 142.355 194.606 142.239 194.644 142.13C194.681 142.021 194.742 141.921 194.821 141.837C194.9 141.753 194.997 141.687 195.104 141.643C195.21 141.599 195.325 141.578 195.441 141.582H199.682C199.796 141.583 199.909 141.606 200.014 141.652C200.119 141.697 200.213 141.764 200.291 141.847C200.37 141.93 200.43 142.028 200.47 142.135C200.509 142.242 200.526 142.356 200.52 142.47L199.978 149.823C199.978 149.823 204.416 152.686 204.367 155.054C204.318 156.88 203.233 165.615 202.74 169.464C202.677 169.982 202.426 170.46 202.035 170.805C201.645 171.151 201.141 171.341 200.619 171.34H194.504C193.982 171.341 193.478 171.151 193.087 170.805C192.697 170.46 192.446 169.982 192.383 169.464C191.89 165.615 190.805 156.88 190.756 155.054C190.706 152.686 195.145 149.823 195.145 149.823Z" fill="#93CAAD"/>
<path d="M412.877 266.83H-47.1958" stroke="#93CAAD" stroke-width="1.8" stroke-linecap="round" stroke-linejoin="round"/>
<path d="M209.052 220.244H168.021C167.381 220.243 166.767 219.988 166.314 219.535C165.861 219.082 165.606 218.467 165.604 217.826V211.362C165.606 210.721 165.861 210.106 166.314 209.653C166.767 209.2 167.381 208.945 168.021 208.943H209.052C209.693 208.945 210.307 209.2 210.76 209.653C211.212 210.106 211.467 210.721 211.469 211.362V217.826C211.467 218.467 211.212 219.082 210.76 219.535C210.307 219.988 209.693 220.243 209.052 220.244V220.244Z" stroke="#93CAAD" stroke-width="1.8" stroke-linecap="round" stroke-linejoin="round"/>
<path d="M203.282 198.531H173.692V208.894H203.282V198.531Z" stroke="#93CAAD" stroke-width="1.8" stroke-linecap="round" stroke-linejoin="round"/>
<path d="M170.24 213.434C170.649 213.434 170.98 213.103 170.98 212.694C170.98 212.285 170.649 211.954 170.24 211.954C169.832 211.954 169.5 212.285 169.5 212.694C169.5 213.103 169.832 213.434 170.24 213.434Z" fill="#93CAAD"/>
<path d="M214.181 209.141L234.993 201.393C235.381 201.242 235.716 200.978 235.953 200.635C236.191 200.292 236.32 199.886 236.324 199.469L194.997 196.508L201.359 207.957L212.11 209.388C212.81 209.48 213.522 209.395 214.181 209.141Z" fill="#63737A"/>
<path d="M161.807 201.59L158.059 172.327C158.036 172.135 158.055 171.941 158.114 171.757C158.174 171.574 158.273 171.406 158.405 171.264C158.536 171.123 158.697 171.013 158.876 170.941C159.055 170.868 159.247 170.836 159.44 170.846L209.447 174.399C209.805 174.422 210.143 174.575 210.397 174.83C210.651 175.084 210.804 175.422 210.828 175.781L213.787 208.006C213.806 208.203 213.781 208.402 213.713 208.588C213.645 208.774 213.535 208.942 213.393 209.08C213.251 209.217 213.079 209.321 212.891 209.383C212.703 209.445 212.503 209.463 212.307 209.437L163.089 202.923C162.762 202.865 162.462 202.705 162.231 202.466C162.001 202.226 161.852 201.92 161.807 201.59Z" fill="#22272E"/>
<path d="M236.324 199.518C236.327 199.937 236.2 200.346 235.962 200.69C235.724 201.035 235.385 201.297 234.993 201.442L214.181 209.19C213.665 209.396 213.108 209.48 212.554 209.437C212.032 209.015 211.596 208.495 211.271 207.907L236.324 199.518Z" fill="#22272E"/>
<path d="M185.696 191.888C187.01 190.917 187.158 188.885 186.026 187.35C184.893 185.816 182.909 185.359 181.595 186.33C180.28 187.301 180.132 189.333 181.265 190.868C182.397 192.403 184.381 192.859 185.696 191.888Z" fill="#63737A"/>
<path d="M301.471 69.1379H286.38L284.851 70.1249C284.739 70.198 284.608 70.2388 284.474 70.2429C284.34 70.247 284.207 70.2142 284.09 70.1481C283.973 70.082 283.877 69.9851 283.811 69.8679C283.745 69.7507 283.713 69.6177 283.717 69.4833V58.7746C283.717 58.2511 283.925 57.749 284.295 57.3788C284.665 57.0086 285.167 56.8007 285.69 56.8007H301.52C302.044 56.8007 302.545 57.0086 302.915 57.3788C303.285 57.749 303.493 58.2511 303.493 58.7746V67.1146C303.483 67.648 303.267 68.1568 302.89 68.5341C302.513 68.9114 302.004 69.1278 301.471 69.1379Z" fill="#F4C2C9"/>
<path d="M293.383 61.7355H298.66" stroke="#22272E" stroke-width="1.8" stroke-linecap="round" stroke-linejoin="round"/>
<path d="M293.383 64.4498H296.589" stroke="#22272E" stroke-width="1.8" stroke-linecap="round" stroke-linejoin="round"/>
<path d="M290.671 61.7355H287.958V64.4497H290.671V61.7355Z" stroke="#22272E" stroke-width="1.8" stroke-linecap="round" stroke-linejoin="round"/>
<path d="M211.321 149.034L127.976 161.667C127.536 161.735 127.086 161.711 126.656 161.596C126.226 161.481 125.824 161.278 125.477 161C125.129 160.721 124.843 160.374 124.636 159.979C124.43 159.584 124.308 159.151 124.277 158.706L119.296 83.5971C119.262 83.1087 119.333 82.6186 119.504 82.1599C119.675 81.7012 119.943 81.2847 120.289 80.9385C120.635 80.5923 121.051 80.3244 121.509 80.1531C121.968 79.9817 122.458 79.9109 122.946 79.9453L206.438 85.275C207.204 85.3231 207.927 85.6426 208.479 86.1762C209.03 86.7098 209.373 87.4226 209.447 88.1866L214.23 145.382C214.283 146.243 214.015 147.093 213.478 147.768C212.94 148.443 212.172 148.894 211.321 149.034Z" fill="#63737A"/>
<path d="M213.589 148.935L129.85 161.618C129.41 161.686 128.961 161.662 128.53 161.547C128.1 161.432 127.698 161.229 127.351 160.95C127.003 160.672 126.717 160.324 126.51 159.93C126.304 159.535 126.182 159.101 126.151 158.657L121.121 83.2023C121.084 82.7069 121.155 82.2092 121.328 81.7435C121.5 81.2777 121.772 80.8547 122.123 80.5034C122.474 80.1521 122.896 79.8807 123.362 79.7077C123.827 79.5348 124.325 79.4643 124.82 79.5012L208.658 84.8308C209.431 84.8815 210.16 85.2084 210.712 85.7519C211.264 86.2954 211.603 87.0193 211.666 87.7918L216.499 145.234C216.595 146.109 216.345 146.988 215.8 147.68C215.256 148.372 214.462 148.823 213.589 148.935Z" fill="#22272E"/>
<path d="M158.996 123.076L135.423 124.359C135.064 124.376 134.713 124.25 134.446 124.01C134.178 123.77 134.016 123.435 133.993 123.076L132.612 103.139C132.601 102.95 132.629 102.761 132.693 102.583C132.758 102.405 132.857 102.242 132.986 102.104C133.115 101.966 133.271 101.855 133.444 101.778C133.617 101.702 133.804 101.661 133.993 101.659L157.566 101.807C157.917 101.801 158.257 101.932 158.514 102.171C158.771 102.41 158.926 102.739 158.947 103.09L160.328 121.596C160.34 121.781 160.315 121.967 160.254 122.142C160.193 122.317 160.098 122.479 159.974 122.617C159.85 122.755 159.699 122.866 159.531 122.945C159.363 123.024 159.181 123.069 158.996 123.076Z" fill="#6DAFA7"/>
<path d="M184.345 115.378L164.618 116.069C164.259 116.085 163.908 115.96 163.641 115.72C163.374 115.48 163.211 115.144 163.188 114.786L162.35 103.287C162.339 103.098 162.367 102.909 162.431 102.731C162.495 102.553 162.595 102.39 162.724 102.252C162.853 102.114 163.009 102.003 163.182 101.926C163.355 101.85 163.541 101.809 163.73 101.807L183.457 101.955C183.804 101.965 184.135 102.101 184.389 102.337C184.643 102.573 184.802 102.893 184.838 103.238L185.676 113.897C185.693 114.084 185.67 114.271 185.611 114.448C185.552 114.625 185.457 114.788 185.332 114.927C185.207 115.066 185.055 115.178 184.885 115.255C184.715 115.333 184.531 115.375 184.345 115.378Z" fill="#FFE779"/>
<path d="M206.685 114.638L190.065 115.23C189.707 115.246 189.356 115.121 189.088 114.881C188.821 114.641 188.658 114.305 188.635 113.947L187.797 103.534C187.786 103.345 187.814 103.156 187.878 102.978C187.943 102.8 188.042 102.637 188.171 102.499C188.3 102.36 188.456 102.25 188.629 102.173C188.802 102.097 188.989 102.056 189.178 102.054L205.797 102.152C206.144 102.162 206.475 102.298 206.729 102.534C206.983 102.77 207.143 103.09 207.178 103.435L207.967 113.157C207.986 113.34 207.966 113.524 207.911 113.699C207.856 113.874 207.765 114.035 207.645 114.174C207.525 114.313 207.378 114.425 207.213 114.505C207.048 114.585 206.868 114.63 206.685 114.638Z" fill="#F4C2C9"/>
<path d="M160.476 142.421L136.902 144.987C136.717 145.01 136.528 144.994 136.349 144.941C136.17 144.887 136.003 144.798 135.86 144.678C135.716 144.557 135.599 144.409 135.516 144.241C135.432 144.074 135.384 143.891 135.374 143.704L134.486 130.824C134.468 130.46 134.591 130.102 134.83 129.826C135.069 129.55 135.405 129.378 135.768 129.344L159.391 127.764C159.572 127.751 159.754 127.774 159.927 127.831C160.1 127.888 160.259 127.979 160.397 128.098C160.534 128.218 160.647 128.363 160.728 128.526C160.809 128.689 160.858 128.866 160.87 129.048L161.758 140.941C161.761 141.301 161.633 141.651 161.396 141.923C161.16 142.196 160.833 142.373 160.476 142.421Z" stroke="#63737A" stroke-width="1.8" stroke-linecap="round" stroke-linejoin="round"/>
<path d="M186.564 141.928L166.887 144.247C166.701 144.27 166.513 144.254 166.333 144.2C166.154 144.147 165.987 144.058 165.844 143.937C165.701 143.817 165.584 143.669 165.5 143.501C165.416 143.334 165.368 143.151 165.358 142.964L163.78 121.695C163.754 121.328 163.875 120.967 164.115 120.689C164.355 120.411 164.696 120.241 165.062 120.214L184.789 119.276C185.147 119.26 185.498 119.386 185.766 119.625C186.033 119.865 186.196 120.201 186.219 120.56L187.797 140.447C187.818 140.805 187.703 141.157 187.474 141.432C187.245 141.707 186.919 141.884 186.564 141.928Z" fill="#F4C2C9"/>
<path d="M182.471 122.978L168.317 123.817C168.237 123.816 168.158 123.833 168.085 123.867C168.012 123.9 167.948 123.949 167.896 124.01C167.844 124.072 167.806 124.143 167.785 124.221C167.764 124.298 167.761 124.379 167.774 124.458L168.416 133.242C168.419 133.321 168.439 133.398 168.474 133.469C168.508 133.54 168.557 133.603 168.618 133.654C168.678 133.705 168.748 133.743 168.823 133.765C168.899 133.788 168.978 133.795 169.057 133.785L183.21 132.551C183.289 132.548 183.366 132.528 183.437 132.493C183.508 132.458 183.571 132.409 183.622 132.349C183.673 132.289 183.711 132.219 183.733 132.143C183.756 132.068 183.763 131.988 183.753 131.91L183.112 123.52C183.081 123.371 183.001 123.237 182.885 123.138C182.769 123.04 182.623 122.983 182.471 122.978Z" fill="#6DAFA7"/>
<path d="M208.658 137.042L192.038 138.868C191.852 138.891 191.664 138.875 191.485 138.821C191.305 138.768 191.139 138.679 190.996 138.558C190.852 138.438 190.735 138.29 190.651 138.122C190.568 137.955 190.519 137.772 190.509 137.585L189.178 120.461C189.152 120.094 189.272 119.733 189.513 119.455C189.753 119.178 190.094 119.007 190.46 118.98L207.08 118.191C207.438 118.175 207.789 118.3 208.057 118.54C208.324 118.78 208.487 119.115 208.51 119.474L209.841 135.562C209.862 135.737 209.847 135.914 209.799 136.084C209.75 136.253 209.669 136.412 209.559 136.549C209.449 136.687 209.312 136.801 209.158 136.886C209.003 136.971 208.833 137.024 208.658 137.042Z" fill="#FFE779"/>
<path d="M148.442 134.279L148.738 137.93" stroke="#63737A" stroke-width="1.8" stroke-linecap="round" stroke-linejoin="round"/>
<path d="M146.864 136.252L150.316 135.956" stroke="#63737A" stroke-width="1.8" stroke-linecap="round" stroke-linejoin="round"/>
<path d="M172.065 138.325C171.966 137.338 171.227 136.549 170.339 136.647C169.878 136.726 169.466 136.981 169.19 137.359C168.914 137.737 168.795 138.207 168.859 138.671C168.863 138.898 168.912 139.123 169.004 139.331C169.096 139.54 169.228 139.727 169.394 139.884C169.559 140.04 169.754 140.162 169.967 140.242C170.181 140.321 170.407 140.358 170.635 140.348C171.074 140.236 171.459 139.97 171.721 139.6C171.983 139.229 172.105 138.777 172.065 138.325Z" fill="#282828"/>
<path d="M174.925 138.029L184.147 137.091" stroke="#282828" stroke-width="1.8" stroke-linecap="round" stroke-linejoin="round"/>
<path d="M195.441 123.619C195.434 123.206 195.273 122.811 194.99 122.51C194.708 122.209 194.323 122.024 193.912 121.991C193.123 122.04 192.581 122.83 192.63 123.767C192.679 124.705 193.37 125.445 194.159 125.396C194.948 125.346 195.539 124.557 195.441 123.619Z" fill="#6DAFA7"/>
<path d="M197.956 123.471L205.896 122.978" stroke="#282828" stroke-width="1.8" stroke-linecap="round" stroke-linejoin="round"/>
<path d="M195.885 128.899C195.786 127.962 195.145 127.271 194.356 127.32C193.567 127.37 193.024 128.209 193.074 129.146C193.123 130.084 193.863 130.824 194.602 130.725C195.012 130.65 195.376 130.416 195.616 130.074C195.856 129.733 195.952 129.311 195.885 128.899Z" fill="#6DAFA7"/>
<path d="M198.351 128.702L206.34 128.061" stroke="#282828" stroke-width="1.8" stroke-linecap="round" stroke-linejoin="round"/>
<path d="M196.329 134.18C196.23 133.242 195.589 132.551 194.8 132.601C194.011 132.65 193.468 133.489 193.518 134.427C193.567 135.364 194.307 136.055 195.046 136.006C195.452 135.921 195.81 135.685 196.048 135.346C196.286 135.007 196.386 134.59 196.329 134.18Z" fill="#6DAFA7"/>
<path d="M198.794 133.933L206.734 133.143" stroke="#282828" stroke-width="1.8" stroke-linecap="round" stroke-linejoin="round"/>
<path d="M140.848 109.653L137.642 109.703C137.496 109.695 137.357 109.637 137.249 109.538C137.141 109.439 137.071 109.305 137.05 109.16L136.804 105.804C136.801 105.726 136.814 105.647 136.843 105.574C136.872 105.501 136.916 105.435 136.971 105.379C137.027 105.324 137.093 105.28 137.166 105.251C137.239 105.223 137.317 105.209 137.396 105.212H140.601C140.747 105.22 140.886 105.278 140.994 105.377C141.102 105.476 141.173 105.61 141.193 105.755L141.44 109.061C141.421 109.212 141.353 109.352 141.245 109.459C141.138 109.566 140.998 109.635 140.848 109.653Z" fill="#FFE779"/>
<path d="M144.3 105.212L155.396 105.163" stroke="#282828" stroke-width="1.8" stroke-linecap="round" stroke-linejoin="round"/>
<path d="M144.497 108.074L155.593 107.976" stroke="#282828" stroke-width="1.8" stroke-linecap="round" stroke-linejoin="round"/>
<path d="M194.06 108.864L191.545 108.913C191.465 108.902 191.39 108.868 191.329 108.815C191.268 108.763 191.223 108.694 191.2 108.617L190.953 105.409C190.952 105.364 190.96 105.318 190.977 105.276C190.993 105.233 191.019 105.194 191.051 105.162C191.083 105.13 191.122 105.104 191.165 105.087C191.207 105.071 191.253 105.063 191.298 105.064H193.813C193.893 105.075 193.968 105.109 194.029 105.162C194.09 105.214 194.135 105.283 194.159 105.36L194.405 108.518C194.399 108.608 194.361 108.693 194.298 108.756C194.234 108.82 194.15 108.858 194.06 108.864Z" fill="#282828"/>
<path d="M196.427 105.015H204.663" stroke="#282828" stroke-width="1.8" stroke-linecap="round" stroke-linejoin="round"/>
<path d="M196.674 107.531L204.86 107.433" stroke="#282828" stroke-width="1.8" stroke-linecap="round" stroke-linejoin="round"/>
<path d="M191.446 111.627L205.156 111.282" stroke="#282828" stroke-width="1.8" stroke-linecap="round" stroke-linejoin="round"/>
<path d="M141.39 117.302L138.185 117.401C138.036 117.402 137.892 117.346 137.783 117.246C137.673 117.145 137.605 117.007 137.593 116.858L137.346 113.503C137.342 113.428 137.352 113.353 137.377 113.282C137.402 113.211 137.441 113.146 137.492 113.091C137.542 113.036 137.604 112.991 137.672 112.96C137.74 112.929 137.814 112.912 137.889 112.91L141.094 112.812C141.241 112.819 141.38 112.878 141.488 112.977C141.596 113.076 141.666 113.209 141.686 113.355L141.933 116.661C141.942 116.817 141.891 116.971 141.79 117.091C141.689 117.21 141.546 117.286 141.39 117.302Z" fill="#FFE779"/>
<path d="M144.842 112.762L155.938 112.466" stroke="#282828" stroke-width="1.8" stroke-linecap="round" stroke-linejoin="round"/>
<path d="M145.04 115.674L156.136 115.329" stroke="#282828" stroke-width="1.8" stroke-linecap="round" stroke-linejoin="round"/>
<path d="M149.478 93.4176L132.858 92.9241C132.594 92.9175 132.342 92.8128 132.15 92.6304C131.959 92.448 131.842 92.2009 131.823 91.9371L131.625 89.3216C131.614 89.1737 131.633 89.025 131.683 88.8852C131.732 88.7454 131.811 88.6177 131.913 88.5105C132.016 88.4033 132.14 88.319 132.277 88.2632C132.415 88.2073 132.562 88.1812 132.71 88.1866L149.33 88.8775C149.594 88.8841 149.847 88.9888 150.038 89.1712C150.229 89.3536 150.346 89.6007 150.366 89.8645L150.563 92.2826C150.571 92.4296 150.549 92.5767 150.498 92.7148C150.447 92.8529 150.368 92.9791 150.266 93.0855C150.165 93.1919 150.042 93.2762 149.907 93.3334C149.771 93.3905 149.625 93.4192 149.478 93.4176Z" fill="#6DAFA7"/>
<path d="M166.295 105.113L181.978 105.064" stroke="#282828" stroke-width="1.8" stroke-linecap="round" stroke-linejoin="round"/>
<path d="M166.492 107.877L182.175 107.679" stroke="#282828" stroke-width="1.8" stroke-linecap="round" stroke-linejoin="round"/>
<path d="M166.788 112.22L175.221 112.022" stroke="#282828" stroke-width="1.8" stroke-linecap="round" stroke-linejoin="round"/>
<path d="M206.192 93.1708C206.185 92.8259 206.058 92.4942 205.833 92.2329C205.608 91.9716 205.299 91.7971 204.959 91.7397C204.367 91.6904 203.874 92.3319 203.973 93.0721C203.964 93.4213 204.085 93.7612 204.313 94.0257C204.541 94.2902 204.859 94.4605 205.206 94.5032C205.797 94.5526 206.241 93.9111 206.192 93.1708Z" fill="#63737A"/>
<path d="M201.803 93.0228C201.802 92.6762 201.677 92.3414 201.451 92.0789C201.225 91.8163 200.912 91.6435 200.57 91.5917C199.929 91.5423 199.485 92.1838 199.534 92.9734C199.536 93.3277 199.667 93.6692 199.903 93.933C200.14 94.1969 200.465 94.3646 200.816 94.4045C201.408 94.4045 201.852 93.763 201.803 93.0228Z" fill="#63737A"/>
<path d="M197.266 92.8254C197.256 92.4683 197.123 92.1257 196.889 91.8557C196.655 91.5858 196.335 91.4053 195.983 91.3449C195.342 91.2956 194.849 91.9371 194.898 92.7267C194.908 93.0838 195.041 93.4264 195.275 93.6964C195.509 93.9663 195.829 94.1468 196.181 94.2072C196.871 94.2565 197.315 93.615 197.266 92.8254Z" fill="#63737A"/>
<path d="M226.214 99.6356L204.318 99.2408C203.89 99.2415 203.478 99.0784 203.166 98.7847C202.854 98.4911 202.666 98.0893 202.641 97.6616L200.669 73.53C200.656 73.3388 200.685 73.1473 200.752 72.9681C200.82 72.7888 200.925 72.6261 201.06 72.4907C201.195 72.3552 201.358 72.2502 201.537 72.1827C201.716 72.1151 201.908 72.0865 202.099 72.0989L224.094 74.4183C224.495 74.4562 224.869 74.6362 225.149 74.9256C225.43 75.2151 225.597 75.5952 225.623 75.9974L227.546 98.1551C227.566 98.342 227.547 98.5309 227.489 98.7098C227.431 98.8886 227.336 99.0532 227.211 99.1929C227.085 99.3326 226.931 99.4442 226.76 99.5205C226.588 99.5967 226.402 99.636 226.214 99.6356Z" fill="#F8AB5D"/>
<path d="M227.398 99.2407L205.502 98.846C205.073 98.8467 204.661 98.6835 204.349 98.3899C204.038 98.0963 203.85 97.6945 203.825 97.2668L201.852 73.1351C201.84 72.944 201.868 72.7524 201.936 72.5732C202.003 72.394 202.108 72.2313 202.244 72.0958C202.379 71.9604 202.542 71.8554 202.721 71.7878C202.9 71.7203 203.091 71.6917 203.282 71.704L225.277 74.0234C225.678 74.0614 226.053 74.2413 226.333 74.5308C226.613 74.8203 226.781 75.2003 226.806 75.6026L228.73 97.7603C228.745 97.9462 228.722 98.1334 228.663 98.3102C228.603 98.4871 228.508 98.6499 228.384 98.7886C228.259 98.9272 228.107 99.0389 227.938 99.1167C227.768 99.1945 227.584 99.2367 227.398 99.2407Z" fill="#FFE779"/>
<path d="M211.419 76.1948L223.009 77.2805" stroke="#63737A" stroke-width="1.8" stroke-linecap="round" stroke-linejoin="round"/>
<path d="M211.617 78.5635L223.206 79.5505" stroke="#63737A" stroke-width="1.8" stroke-linecap="round" stroke-linejoin="round"/>
<path d="M212.061 83.9919L223.699 84.7815" stroke="#63737A" stroke-width="1.8" stroke-linecap="round" stroke-linejoin="round"/>
<path d="M212.258 86.3113L223.847 87.0022" stroke="#63737A" stroke-width="1.8" stroke-linecap="round" stroke-linejoin="round"/>
<path d="M212.751 91.7891L224.34 92.2826" stroke="#63737A" stroke-width="1.8" stroke-linecap="round" stroke-linejoin="round"/>
<path d="M212.948 94.1085L224.538 94.5033" stroke="#63737A" stroke-width="1.8" stroke-linecap="round" stroke-linejoin="round"/>
<path d="M207.425 77.5272L208.017 78.2675L208.855 77.1324" stroke="#6DAFA7" stroke-width="1.8" stroke-linecap="round" stroke-linejoin="round"/>
<path d="M208.066 85.4231L208.658 86.1139L209.545 84.9789" stroke="#6DAFA7" stroke-width="1.8" stroke-linecap="round" stroke-linejoin="round"/>
<path d="M208.707 93.1708L209.348 93.8617L210.187 92.6773" stroke="#6DAFA7" stroke-width="1.8" stroke-linecap="round" stroke-linejoin="round"/>
<path d="M236.62 134.328C236.62 134.328 233.563 140.694 233.316 144.74C233.069 148.787 237.36 165.023 244.363 177.409C244.363 177.409 250.971 175.238 250.971 173.215C250.971 171.192 247.075 147.257 247.322 146.566C247.568 145.876 250.281 140.793 250.281 138.621C250.281 136.45 237.656 131.959 236.62 134.328Z" fill="#F4C2C9"/>
<path d="M250.281 138.621C250.281 136.45 237.705 131.959 236.669 134.328C236.669 134.328 236.275 135.216 235.732 136.499C239.727 139.608 244.018 142.273 248.9 143.161C249.59 141.582 250.281 139.707 250.281 138.621Z" fill="#E26E85"/>
<path d="M249.738 107.285C249.738 107.285 244.807 108.963 241.059 117.451C237.311 125.939 233.316 133.045 233.316 133.045C233.316 133.045 239.48 139.164 247.371 142.273C255.262 145.481 255.558 108.074 249.738 107.285Z" fill="#6DAFA7"/>
<path d="M234.697 130.528C234.697 130.528 243.13 137.437 250.971 140.447" stroke="#282828" stroke-width="1.8" stroke-linecap="round" stroke-linejoin="round"/>
<path d="M266.21 291.356C266.21 291.356 265.766 301.72 265.865 302.707C265.963 303.693 262.413 305.816 258.024 305.667C253.634 305.519 253.24 304.236 253.24 304.236C253.24 304.236 252.253 293.034 252.155 291.455C252.056 289.876 265.322 289.234 266.21 291.356Z" fill="#F4C2C9"/>
<path d="M265.963 297.327C266.062 294.367 266.21 291.356 266.21 291.356C265.322 289.234 252.056 289.876 252.155 291.455C252.204 292.195 252.451 294.959 252.648 297.722C256.544 299.647 261.673 299.153 265.963 297.327Z" fill="#22272E"/>
<path d="M265.865 302.41C265.865 302.41 266.259 305.322 266.407 308.48C266.555 311.639 267.048 317.413 266.506 318.399C265.963 319.386 262.955 320.225 255.903 320.768C248.851 321.311 242.341 320.818 241.206 319.929C240.072 319.041 240.417 317.709 241.502 316.672C242.587 315.636 246.878 311.046 248.653 309.171C250.971 306.704 252.648 304.187 252.648 303.891C252.796 302.707 253.042 302.707 253.042 302.707C253.042 302.707 253.338 303.447 253.733 303.397C254.127 303.348 254.67 301.127 257.037 301.67C259.404 302.213 260.391 303.842 261.278 303.842C262.166 303.842 264.582 303.496 265.865 302.41Z" fill="#22272E"/>
<path d="M284.704 293.429C284.704 293.429 286.035 304.088 286.282 304.73C286.528 305.371 288.994 307.148 292.841 306.95C296.688 306.753 298.167 305.618 298.315 305.371C298.463 305.125 298.216 292.935 298.118 292.146C298.019 291.356 285.591 291.554 284.704 293.429Z" fill="#F4C2C9"/>
<path d="M298.266 297.624C298.216 294.909 298.118 292.393 298.068 292.047C297.92 291.258 285.591 291.504 284.654 293.38C284.654 293.38 284.95 295.748 285.295 298.314C289.596 299.329 294.097 299.089 298.266 297.624Z" fill="#22272E"/>
<path d="M286.084 303.792C285.978 304.56 285.945 305.337 285.986 306.112C286.035 306.753 286.084 307.641 286.084 308.727C286.134 310.997 286.331 318.844 286.874 319.979C287.416 321.114 293.63 322.051 298.315 322.101C303 322.15 306.452 320.916 306.995 319.633C307.537 318.35 307.241 316.475 305.614 314.402C303.986 312.33 300.238 309.122 299.794 307.592C299.429 306.286 298.95 305.015 298.364 303.792C298.026 304.267 297.566 304.642 297.033 304.878C296.392 305.075 295.455 302.41 293.433 302.312C291.411 302.213 290.523 303.003 289.241 304.878C288.088 304.935 286.958 304.547 286.084 303.792Z" fill="#22272E"/>
<path d="M242.834 164.727C241.986 168.898 241.393 173.117 241.059 177.36C240.467 184.614 242.538 229.571 242.834 233.075C243.13 236.579 244.264 256.565 245.546 266.287C246.582 274.281 245.842 290.419 248.259 292.689C250.675 294.959 258.073 296.192 262.659 294.959C267.246 293.725 269.366 291.455 269.909 289.58C270.451 287.704 268.281 273.443 268.429 266.188C268.577 258.934 268.429 237.516 268.183 232.434C268.183 232.434 270.205 206.476 272.621 200.554C275.038 194.632 278.539 172.82 271.832 166.503C265.026 160.187 243.426 163.69 242.834 164.727Z" fill="#22272E"/>
<path d="M253.634 167.589C253.634 167.589 253.585 177.36 253.98 184.664C254.051 186.884 254.298 189.095 254.719 191.277C255.952 196.409 258.615 196.804 260.637 197.988C262.659 199.172 269.909 228.239 272.868 235.789C272.868 235.789 275.136 253.16 276.912 263.523C278.687 273.887 278.391 286.421 279.723 290.715C281.054 295.008 288.846 295.847 292.644 295.502C296.441 295.156 301.521 293.676 301.373 289.234C301.225 284.793 300.485 272.16 299.844 261.401C299.203 250.643 297.97 234.605 297.674 230.854C297.674 230.854 296.194 213.089 295.405 203.959C294.616 194.83 295.06 185.503 293.877 169.76C292.594 153.969 253.585 158.805 253.634 167.589Z" fill="#22272E"/>
<path d="M253.979 184.664C254.051 186.884 254.298 189.095 254.719 191.277C255.952 196.409 258.615 196.804 260.637 197.988C262.659 199.172 269.909 228.239 272.868 235.789" stroke="#63737A" stroke-width="1.8" stroke-linecap="round" stroke-linejoin="round"/>
<path d="M260.637 197.988C260.637 197.988 254.867 195.027 252.303 196.113" stroke="#63737A" stroke-width="1.8" stroke-linecap="round" stroke-linejoin="round"/>
<path d="M251.81 240.28C255.405 240.28 258.319 237.076 258.319 233.124C258.319 229.173 255.405 225.969 251.81 225.969C248.214 225.969 245.3 229.173 245.3 233.124C245.3 237.076 248.214 240.28 251.81 240.28Z" stroke="#63737A" stroke-width="1.8" stroke-linecap="round" stroke-linejoin="round"/>
<path d="M285.838 239.836C289.542 239.836 292.545 236.632 292.545 232.68C292.545 228.728 289.542 225.525 285.838 225.525C282.134 225.525 279.131 228.728 279.131 232.68C279.131 236.632 282.134 239.836 285.838 239.836Z" stroke="#63737A" stroke-width="1.8" stroke-linecap="round" stroke-linejoin="round"/>
<path d="M254.67 298.462C254.592 297.972 254.592 297.472 254.67 296.982" stroke="#63737A" stroke-width="1.8" stroke-linecap="round" stroke-linejoin="round"/>
<path d="M258.763 299.104V296.982" stroke="#63737A" stroke-width="1.8" stroke-linecap="round" stroke-linejoin="round"/>
<path d="M263.744 298.117C263.744 298.117 263.793 296.883 263.744 296.34" stroke="#63737A" stroke-width="1.8" stroke-linecap="round" stroke-linejoin="round"/>
<path d="M287.416 298.759C287.416 298.759 287.169 297.426 287.169 297.031" stroke="#63737A" stroke-width="1.8" stroke-linecap="round" stroke-linejoin="round"/>
<path d="M292.348 298.956C292.398 298.25 292.398 297.54 292.348 296.834" stroke="#63737A" stroke-width="1.8" stroke-linecap="round" stroke-linejoin="round"/>
<path d="M296.589 298.166C296.641 297.608 296.641 297.047 296.589 296.489" stroke="#63737A" stroke-width="1.8" stroke-linecap="round" stroke-linejoin="round"/>
<path d="M250.034 308.431C250.034 308.431 253.782 305.421 261.13 309.566" stroke="white" stroke-width="1.8" stroke-linecap="round" stroke-linejoin="round"/>
<path d="M247.223 312.231C247.223 312.231 251.859 308.53 258.763 313.02" stroke="white" stroke-width="1.8" stroke-linecap="round" stroke-linejoin="round"/>
<path d="M300.929 310.602C300.929 310.602 296.441 308.628 290.375 311.836" stroke="white" stroke-width="1.8" stroke-linecap="round" stroke-linejoin="round"/>
<path d="M302.951 313.958C302.951 313.958 297.772 311.688 291.509 315.784" stroke="white" stroke-width="1.8" stroke-linecap="round" stroke-linejoin="round"/>
<path d="M273.607 105.557C273.607 105.557 276.073 106.298 281.301 106.396C286.528 106.495 292.496 108.025 294.813 110.936C297.131 113.848 297.871 135.315 297.526 145.037C297.181 154.758 290.227 169.218 290.227 169.218C290.227 169.218 273.607 171.093 259.996 170.451C246.385 169.81 243.13 166.799 242.193 165.862C241.256 164.924 240.713 162.654 241.256 161.667C241.798 160.68 244.461 153.031 245.448 145.678C246.434 138.325 244.363 128.061 245.3 119.03C246.237 109.999 249.738 107.334 249.738 107.334C249.738 107.334 254.127 105.854 261.722 105.607C265.68 105.387 269.647 105.371 273.607 105.557Z" fill="#FFE779"/>
<path d="M254.078 103.583C254.078 103.583 247.716 113.355 249.738 133.933C251.76 154.512 242.883 165.122 246.927 174.597" stroke="#F8AB5D" stroke-width="1.8" stroke-linecap="round" stroke-linejoin="round"/>
<path d="M288.452 105.409C288.452 105.409 280.709 106.692 278.786 119.77C276.862 132.847 281.942 150.317 281.005 160.137C280.068 169.958 277.454 175.732 277.454 175.732" stroke="#F8AB5D" stroke-width="1.8" stroke-linecap="round" stroke-linejoin="round"/>
<path d="M289.29 172.573C289.29 172.573 291.904 147.948 289.29 134.328C286.676 120.708 292.594 108.864 299.252 110.492" stroke="#F8AB5D" stroke-width="1.8" stroke-linecap="round" stroke-linejoin="round"/>
<path d="M266.407 173.61C266.407 173.61 268.577 157.621 267.837 143.309C267.541 137.93 264.435 111.529 275.925 103.189" stroke="#F8AB5D" stroke-width="1.8" stroke-linecap="round" stroke-linejoin="round"/>
<path d="M254.078 172.573C254.078 172.573 257.481 152.439 257.284 140.595C257.086 128.751 256.1 103.682 262.067 99.6356" stroke="#F8AB5D" stroke-width="1.8" stroke-linecap="round" stroke-linejoin="round"/>
<path d="M272.868 131.564C274.638 131.564 276.073 130.128 276.073 128.357C276.073 126.585 274.638 125.149 272.868 125.149C271.097 125.149 269.662 126.585 269.662 128.357C269.662 130.128 271.097 131.564 272.868 131.564Z" fill="#F8AB5D"/>
<path d="M262.117 103.682C260.785 103.732 259.749 104.521 258.812 105.459C258.135 106.119 257.656 106.957 257.432 107.877C255.558 116.957 258.418 127.913 262.067 127.814C266.654 127.666 272.818 119.326 277.651 109.851C279.624 105.952 275.827 103.238 273.607 103.238C271.881 103.189 264.878 103.534 262.117 103.682Z" fill="#6DAFA7"/>
<path d="M283.175 84.4854C283.053 87.282 282.258 90.0077 280.857 92.4306C278.539 96.3785 275.728 98.4512 274.791 100.228C273.854 102.004 274.101 97.3655 274.791 95.1448C275.481 92.9241 279.575 81.0803 283.175 84.4854Z" fill="#22272E"/>
<path d="M261.081 99.4875C261.081 99.4875 260.539 104.274 260.193 106.1C259.848 107.926 259.059 112.713 265.174 113.009C270.649 113.305 273.607 109.061 274.692 106.989C275.031 106.37 275.185 105.668 275.136 104.965C274.988 102.794 274.692 97.4642 274.84 93.1215C275.038 87.5944 261.081 95.5889 261.081 99.4875Z" fill="#F4C2C9"/>
<path d="M271.931 99.8329C269.021 102.152 264.73 103.238 260.687 102.646C260.539 103.929 260.341 105.311 260.193 106.1C260.144 106.347 260.095 106.643 260.045 106.989C265.026 107.235 270.698 104.768 271.931 99.8329Z" fill="#E26E85"/>
<path d="M255.262 81.7219C255.262 81.7219 253.93 83.6465 254.127 85.1269C254.325 86.6074 257.136 91.5917 258.566 91.4436C259.996 91.2956 261.476 85.1763 259.799 83.153C258.122 81.1297 255.804 80.7842 255.262 81.7219Z" fill="#22272E"/>
<path d="M256.396 84.5348C256.457 87.0121 256.291 89.4897 255.903 91.9371C255.262 95.885 254.818 101.807 260.687 103.435C266.555 105.064 273.46 102.843 275.629 94.75C277.799 86.6568 279.377 78.4648 271.881 76.0961C264.385 73.7273 255.508 76.787 256.396 84.5348Z" fill="#F4C2C9"/>
<path d="M258.911 88.4827C259.05 89.072 259.016 89.6889 258.813 90.2593C258.714 90.5473 258.563 90.8149 258.369 91.0488C258.283 91.1742 258.183 91.2899 258.073 91.3943C258.024 91.4436 257.974 91.5423 257.925 91.5917C257.876 91.7356 257.876 91.8919 257.925 92.0358C258.002 92.253 258.119 92.4538 258.27 92.628C258.605 93.0358 259.005 93.3859 259.454 93.6643C258.846 93.7056 258.245 93.5112 257.777 93.1215C257.501 92.9161 257.28 92.6447 257.136 92.3319C257.051 92.1549 257.006 91.9609 257.006 91.7644C257.006 91.5679 257.051 91.3739 257.136 91.1969C257.209 91.0208 257.329 90.8675 257.481 90.7527C257.58 90.654 257.678 90.6047 257.728 90.506C257.891 90.3208 258.04 90.1227 258.171 89.9138C258.476 89.4692 258.725 88.9885 258.911 88.4827Z" fill="#22272E"/>
<path d="M275.334 90.7527C274.754 89.6992 274.385 88.5425 274.249 87.3477C273.953 85.0776 271.536 85.2257 270.402 81.031C269.268 76.8363 266.506 82.018 262.117 83.8932C257.728 85.7685 254.275 82.7582 252.5 79.4025C250.725 76.0468 253.733 73.0858 255.755 71.704C257.777 70.3223 259.898 72.543 263.843 71.556C267.788 70.569 274.15 69.3353 277.208 73.7767C280.265 78.2181 283.421 79.3038 283.224 84.14C283.027 88.9762 277.356 94.3552 277.01 94.4046C276.665 94.4539 275.334 90.7527 275.334 90.7527Z" fill="#22272E"/>
<path d="M264.928 86.1139C264.78 85.7191 264.632 84.9789 265.174 84.5841C265.717 84.1893 266.95 84.3374 268.133 85.0776C269.169 85.7191 269.465 86.7555 268.774 86.6568C268.084 86.5581 267.542 86.262 266.703 86.2126C265.865 86.1633 265.076 86.4594 264.928 86.1139Z" fill="#22272E"/>
<path d="M259.01 85.5711C259.093 85.3366 259.123 85.0864 259.098 84.8388C259.072 84.5913 258.991 84.3525 258.862 84.14C258.566 83.7452 257.777 83.7946 257.037 84.3374C256.396 84.8309 256.199 85.7685 256.643 85.7192C257.06 85.5979 257.491 85.5315 257.925 85.5218C258.467 85.5711 258.911 85.8672 259.01 85.5711Z" fill="#22272E"/>
<path d="M255.607 94.4539C255.607 94.4539 255.558 95.0461 256.396 95.1941C257.234 95.3422 257.333 94.0591 258.763 93.8617C259.651 93.763 262.758 94.0098 264.04 95.1941C265.322 96.3785 267.098 97.7603 269.662 96.9707C272.227 96.1811 273.755 92.5787 274.249 87.3477C274.692 82.5608 276.468 87.1996 276.468 88.3346C276.468 89.1242 275.728 87.9892 274.84 91.1969C274.446 92.628 274.84 96.6746 273.312 99.6355C272.128 101.906 268.824 104.225 264.632 104.521C260.44 104.817 256.988 103.09 255.952 100.326C254.916 97.6616 255.311 94.6513 255.607 94.4539Z" fill="#22272E"/>
<path d="M257.629 89.2722C257.819 89.2916 258.008 89.2349 258.156 89.1147C258.304 88.9944 258.398 88.8204 258.418 88.6307L258.467 88.2359C258.487 88.0462 258.43 87.8566 258.31 87.7086C258.19 87.5606 258.016 87.4663 257.826 87.4463C257.637 87.427 257.447 87.4837 257.299 87.6039C257.151 87.7242 257.057 87.8982 257.037 88.0879L256.988 88.4827C256.969 88.6724 257.025 88.862 257.145 89.01C257.266 89.158 257.439 89.2523 257.629 89.2722Z" fill="#22272E"/>
<path d="M265.47 89.7657C265.66 89.7851 265.849 89.7284 265.997 89.6082C266.145 89.4879 266.239 89.3139 266.259 89.1242L266.309 88.7294C266.328 88.5397 266.271 88.3501 266.151 88.2021C266.031 88.0541 265.857 87.9598 265.668 87.9398C265.478 87.9205 265.288 87.9772 265.141 88.0974C264.993 88.2177 264.898 88.3917 264.878 88.5814L264.829 88.9762C264.811 89.0713 264.814 89.1693 264.838 89.2632C264.862 89.357 264.906 89.4446 264.967 89.5198C265.028 89.5949 265.104 89.6559 265.191 89.6984C265.278 89.7409 265.374 89.7638 265.47 89.7657Z" fill="#22272E"/>
<path d="M274.791 91.1969C274.791 91.1969 276.123 88.2359 278.44 88.5814C280.758 88.9268 279.624 95.1941 275.333 95.1448" fill="#F4C2C9"/>
<path d="M278.292 90.8021C278.176 90.6713 278.043 90.5553 277.898 90.4567C277.75 90.4073 277.799 90.506 277.701 90.5554C277.701 90.6047 277.602 90.9995 277.553 91.3449C277.506 91.7251 277.389 92.0933 277.208 92.4306C277.122 92.6409 276.986 92.8272 276.813 92.9735C276.726 93.0474 276.619 93.0957 276.506 93.1132C276.393 93.1306 276.277 93.1164 276.172 93.0722C276.247 93.0326 276.313 92.9766 276.365 92.9083C276.416 92.84 276.451 92.7611 276.468 92.6774C276.517 92.5293 276.517 92.3813 276.566 92.2332C276.595 91.8688 276.644 91.5063 276.714 91.1475L276.862 90.5554L277.01 90.2593C277.06 90.2099 277.06 90.1606 277.158 90.1112C277.257 90.0619 277.306 90.0125 277.355 89.9632C277.494 89.8961 277.646 89.8623 277.799 89.8645C277.953 89.9046 278.091 89.9907 278.194 90.1112C278.256 90.2139 278.296 90.3279 278.313 90.4466C278.33 90.5653 278.323 90.6862 278.292 90.8021Z" fill="#22272E"/>
<path d="M261.081 97.2174C261.922 97.567 262.842 97.6862 263.744 97.5629" stroke="#F4C2C9" stroke-width="1.8" stroke-linecap="round" stroke-linejoin="round"/>
<path d="M258.687 87.8451C258.922 85.3761 257.795 83.2487 256.168 83.0934C254.541 82.938 253.031 84.8136 252.796 87.2826C252.56 89.7516 253.688 91.879 255.315 92.0343C256.942 92.1896 258.452 90.314 258.687 87.8451Z" stroke="#22272E" stroke-width="1.8" stroke-linecap="round" stroke-linejoin="round"/>
<path d="M269.653 88.8046C269.889 86.3356 268.387 84.1725 266.299 83.9732C264.211 83.7739 262.328 85.6138 262.093 88.0828C261.857 90.5517 263.359 92.7148 265.447 92.9141C267.534 93.1134 269.418 91.2735 269.653 88.8046Z" stroke="#22272E" stroke-width="1.8" stroke-linecap="round" stroke-linejoin="round"/>
<path d="M258.566 88.5814C258.566 88.5814 259.404 87.0022 262.067 88.8775" stroke="#22272E" stroke-width="1.8" stroke-linecap="round" stroke-linejoin="round"/>
<path d="M269.613 88.8281L275.186 90.0125" stroke="#22272E" stroke-width="1.8" stroke-linecap="round" stroke-linejoin="round"/>
<path d="M290.967 143.309L293.581 148.59C293.581 148.59 290.819 152.34 287.86 159.446C284.901 166.553 282.731 175.337 280.709 177.854C280.709 177.854 282.682 182.591 287.515 184.664C287.515 184.664 296.934 170.846 301.225 164.826C305.515 158.805 309.608 151.107 309.312 147.257C308.869 141.582 304.578 133.193 304.184 130.923C303.789 128.653 291.065 136.746 290.967 143.309Z" fill="#F4C2C9"/>
<path d="M304.134 130.923C303.789 128.702 291.065 136.746 290.967 143.309L291.361 144.05C295.847 140.728 300.891 138.237 306.255 136.697C305.219 134.13 304.282 131.91 304.134 130.923Z" fill="#E26E85"/>
<path d="M283.175 172.721C283.865 173.906 286.232 177.064 291.756 178.347C291.798 178.355 291.836 178.374 291.869 178.401C291.901 178.428 291.926 178.463 291.941 178.503C291.956 178.543 291.96 178.585 291.954 178.627C291.947 178.669 291.93 178.709 291.904 178.742L289.389 182.147C289.339 182.246 289.191 182.246 289.093 182.246C282.928 180.37 281.301 177.261 281.054 176.669C281.03 176.642 281.017 176.607 281.017 176.571C281.017 176.534 281.03 176.499 281.054 176.472L282.731 172.771C282.83 172.524 283.076 172.524 283.175 172.721Z" fill="#22272E"/>
<path d="M285.983 180.041C286.663 178.929 286.351 177.499 285.286 176.847C284.221 176.196 282.806 176.568 282.126 177.68C281.447 178.792 281.759 180.222 282.824 180.874C283.889 181.526 285.303 181.153 285.983 180.041Z" fill="white"/>
<path d="M292.397 110.542C292.973 110.441 293.566 110.499 294.113 110.707C294.66 110.915 295.14 111.267 295.504 111.726C296.638 113.157 298.512 115.921 300.83 120.658C304.726 128.603 307.439 133.834 307.439 133.834C307.439 133.834 293.926 141.138 290.967 143.309C290.967 143.309 285.493 134.081 283.717 130.232C281.991 126.58 282.484 112.368 292.397 110.542Z" fill="#6DAFA7"/>
<path d="M289.29 140.447C294.493 136.703 300.061 133.495 305.91 130.873" stroke="#282828" stroke-width="1.8" stroke-linecap="round" stroke-linejoin="round"/>
<path d="M278.786 174.597C279.692 177.339 281.238 179.827 283.296 181.852C285.355 183.877 287.866 185.383 290.622 186.243" stroke="#63737A" stroke-width="1.8" stroke-linecap="round" stroke-linejoin="round"/>
<path d="M293.581 148.59C294.644 147.401 296.062 146.587 297.625 146.27" stroke="#E26E85" stroke-width="1.8" stroke-linecap="round" stroke-linejoin="round"/>
<path d="M366.668 160.927L323.023 155.548C322.344 155.466 321.725 155.12 321.3 154.584C320.875 154.048 320.679 153.366 320.754 152.686L325.39 109.357C325.482 108.542 325.842 107.78 326.413 107.191C326.984 106.602 327.734 106.218 328.546 106.1L373.72 99.981C374.117 99.9259 374.521 99.9628 374.902 100.089C375.283 100.215 375.629 100.427 375.915 100.708C376.201 100.989 376.419 101.333 376.551 101.711C376.683 102.09 376.727 102.494 376.679 102.893L369.972 158.41C369.861 159.18 369.453 159.875 368.835 160.346C368.217 160.817 367.438 161.026 366.668 160.927Z" fill="#63737A"/>
<path d="M365.188 160.779L321.543 155.351C320.864 155.269 320.245 154.922 319.82 154.386C319.396 153.85 319.199 153.168 319.274 152.488L323.91 109.16C324.003 108.344 324.363 107.583 324.934 106.993C325.505 106.404 326.255 106.021 327.066 105.903L372.24 99.7836C372.637 99.7285 373.042 99.7655 373.423 99.8915C373.803 100.018 374.15 100.229 374.436 100.511C374.722 100.792 374.939 101.135 375.072 101.514C375.204 101.893 375.248 102.297 375.199 102.695L368.492 158.213C368.388 158.989 367.983 159.692 367.365 160.172C366.747 160.652 365.965 160.87 365.188 160.779Z" fill="#22272E"/>
<path d="M363.561 120.51L329.384 122.237C329.248 122.248 329.111 122.228 328.983 122.179C328.855 122.13 328.739 122.053 328.645 121.954C328.551 121.854 328.479 121.735 328.437 121.605C328.394 121.475 328.381 121.337 328.398 121.201L329.236 113.552C329.26 113.337 329.356 113.137 329.508 112.985C329.661 112.832 329.86 112.736 330.075 112.713L364.547 109.308C364.691 109.294 364.836 109.312 364.972 109.363C365.107 109.413 365.229 109.493 365.329 109.598C365.429 109.703 365.504 109.829 365.548 109.967C365.592 110.104 365.603 110.25 365.583 110.394L364.448 119.77C364.448 120.115 364.054 120.461 363.561 120.51Z" fill="#6DAFA7"/>
<path d="M338.113 115.378L360.75 113.552" stroke="#22272E" stroke-width="1.8" stroke-linecap="round" stroke-linejoin="round"/>
<path d="M337.817 118.289L349.999 117.451" stroke="#22272E" stroke-width="1.8" stroke-linecap="round" stroke-linejoin="round"/>
<path d="M334.184 117.782C334.623 116.966 334.436 116.012 333.764 115.649C333.093 115.287 332.193 115.654 331.753 116.47C331.313 117.286 331.501 118.241 332.172 118.603C332.844 118.965 333.744 118.598 334.184 117.782Z" fill="#22272E"/>
<path d="M361.637 136.154L327.856 135.562C327.726 135.555 327.599 135.523 327.482 135.468C327.364 135.412 327.259 135.334 327.172 135.238C327.085 135.142 327.018 135.029 326.974 134.907C326.931 134.785 326.912 134.655 326.919 134.525L327.757 126.926C327.777 126.693 327.885 126.476 328.059 126.32C328.233 126.164 328.46 126.081 328.694 126.087L362.722 125.001C362.86 125 362.997 125.029 363.124 125.084C363.251 125.14 363.364 125.222 363.457 125.324C363.55 125.426 363.62 125.547 363.664 125.678C363.707 125.81 363.722 125.949 363.709 126.087L362.624 135.364C362.572 135.588 362.447 135.788 362.268 135.931C362.089 136.074 361.867 136.153 361.637 136.154Z" fill="#F4C2C9"/>
<path d="M336.584 129.294L358.974 128.998" stroke="#22272E" stroke-width="1.8" stroke-linecap="round" stroke-linejoin="round"/>
<path d="M336.239 132.156H348.322" stroke="#22272E" stroke-width="1.8" stroke-linecap="round" stroke-linejoin="round"/>
<path d="M332.728 131.421C333.131 130.587 332.921 129.651 332.259 129.331C331.597 129.01 330.733 129.427 330.331 130.262C329.928 131.096 330.138 132.032 330.8 132.352C331.462 132.672 332.326 132.255 332.728 131.421Z" fill="#22272E"/>
<path d="M359.763 151.649L326.376 148.787C326.123 148.762 325.89 148.64 325.724 148.447C325.559 148.254 325.474 148.005 325.488 147.751L326.327 140.2C326.349 139.959 326.465 139.737 326.649 139.58C326.834 139.423 327.072 139.345 327.313 139.361L360.947 140.595C361.081 140.601 361.212 140.635 361.333 140.693C361.454 140.752 361.561 140.834 361.649 140.936C361.737 141.038 361.803 141.156 361.843 141.284C361.884 141.412 361.897 141.547 361.884 141.681L360.799 150.86C360.744 151.091 360.611 151.296 360.422 151.44C360.233 151.584 360 151.658 359.763 151.649Z" fill="#FFE779"/>
<path d="M335.056 143.112L357.149 144.296" stroke="#22272E" stroke-width="1.8" stroke-linecap="round" stroke-linejoin="round"/>
<path d="M334.71 145.925L346.645 146.764" stroke="#22272E" stroke-width="1.8" stroke-linecap="round" stroke-linejoin="round"/>
<path d="M331.308 144.611C331.673 143.76 331.42 142.834 330.744 142.545C330.068 142.255 329.225 142.71 328.86 143.562C328.495 144.414 328.748 145.339 329.424 145.629C330.1 145.919 330.943 145.463 331.308 144.611Z" fill="#22272E"/>
</g>
<defs>
<clipPath id="clip0_208_90">
<rect width="505" height="379" fill="white"/>
</clipPath>
</defs>
</svg>
