<svg width="1512" height="132" viewBox="0 0 1512 132" fill="none" xmlns="http://www.w3.org/2000/svg">
<path fill-rule="evenodd" clip-rule="evenodd" d="M0 0.881226L62.6062 5.80765C126.394 10.7341 251.606 20.5869 378 37.261C504.394 54.314 629.606 78.5672 756 83.4936C882.394 88.42 1007.61 73.6408 1134 69.0933C1260.39 64.1669 1385.61 69.0933 1449.39 71.367L1512 73.6408V132H1449.39C1385.61 132 1260.39 132 1134 132C1007.61 132 882.394 132 756 132C629.606 132 504.394 132 378 132C251.606 132 126.394 132 62.6062 132H0V0.881226Z" fill="#93CAAC" fill-opacity="0.8"/>
<path fill-rule="evenodd" clip-rule="evenodd" d="M0 53.3287L50.4 63.8182C100.8 74.3077 201.6 95.2867 302.4 90.042C403.2 84.7972 504 53.3287 604.8 32.3497C705.6 11.3707 806.4 0.881226 907.2 0.881226C1008 0.881226 1108.8 11.3707 1209.6 29.7273C1310.4 48.084 1411.2 74.3077 1461.6 87.4196L1512 100.531V132H1461.6C1411.2 132 1310.4 132 1209.6 132C1108.8 132 1008 132 907.2 132C806.4 132 705.6 132 604.8 132C504 132 403.2 132 302.4 132C201.6 132 100.8 132 50.4 132H0V53.3287Z" fill="#315C57" fill-opacity="0.8"/>
</svg>
