<svg width="76" height="70" viewBox="0 0 76 70" fill="none" xmlns="http://www.w3.org/2000/svg">
<g filter="url(#filter0_d_402_749)">
<rect x="4" width="68" height="62" rx="20" fill="#315C57"/>
<mask id="mask0_402_749" style="mask-type:alpha" maskUnits="userSpaceOnUse" x="20" y="11" width="41" height="38">
<rect x="20" y="11" width="41" height="38" fill="#D9D9D9"/>
</mask>
<g mask="url(#mask0_402_749)">
<path d="M50.7502 33.1666V28.4166H45.6252V25.25H50.7502V20.5H54.1668V25.25H59.2918V28.4166H54.1668V33.1666H50.7502ZM35.3752 30C33.496 30 31.8873 29.3798 30.5491 28.1396C29.2109 26.8993 28.5418 25.4083 28.5418 23.6666C28.5418 21.925 29.2109 20.434 30.5491 19.1937C31.8873 17.9535 33.496 17.3333 35.3752 17.3333C37.2543 17.3333 38.863 17.9535 40.2012 19.1937C41.5394 20.434 42.2085 21.925 42.2085 23.6666C42.2085 25.4083 41.5394 26.8993 40.2012 28.1396C38.863 29.3798 37.2543 30 35.3752 30ZM21.7085 42.6666V38.2333C21.7085 37.3361 21.9579 36.5112 22.4567 35.7586C22.9544 35.007 23.6161 34.4333 24.4418 34.0375C26.2071 33.2194 28.0009 32.6056 29.8231 32.1961C31.6453 31.7876 33.496 31.5833 35.3752 31.5833C37.2543 31.5833 39.105 31.7876 40.9272 32.1961C42.7495 32.6056 44.5432 33.2194 46.3085 34.0375C47.1342 34.4333 47.7959 35.007 48.2936 35.7586C48.7924 36.5112 49.0418 37.3361 49.0418 38.2333V42.6666H21.7085Z" fill="#E8FFF2"/>
</g>
</g>
<defs>
<filter id="filter0_d_402_749" x="0" y="0" width="76" height="70" filterUnits="userSpaceOnUse" color-interpolation-filters="sRGB">
<feFlood flood-opacity="0" result="BackgroundImageFix"/>
<feColorMatrix in="SourceAlpha" type="matrix" values="0 0 0 0 0 0 0 0 0 0 0 0 0 0 0 0 0 0 127 0" result="hardAlpha"/>
<feOffset dy="4"/>
<feGaussianBlur stdDeviation="2"/>
<feComposite in2="hardAlpha" operator="out"/>
<feColorMatrix type="matrix" values="0 0 0 0 0 0 0 0 0 0 0 0 0 0 0 0 0 0 0.1 0"/>
<feBlend mode="normal" in2="BackgroundImageFix" result="effect1_dropShadow_402_749"/>
<feBlend mode="normal" in="SourceGraphic" in2="effect1_dropShadow_402_749" result="shape"/>
</filter>
</defs>
</svg>
