<svg width="40" height="40" viewBox="0 0 40 40" fill="none" xmlns="http://www.w3.org/2000/svg">
<mask id="mask0_241_150" style="mask-type:alpha" maskUnits="userSpaceOnUse" x="0" y="0" width="40" height="40">
<rect width="40" height="40" fill="#D9D9D9"/>
</mask>
<g mask="url(#mask0_241_150)">
<path d="M7.08301 31.458V29.333H10.5V16.75C10.5 14.472 11.1943 12.458 12.583 10.708C13.9723 8.958 15.778 7.847 18 7.375V6.208C18 5.65267 18.1943 5.18733 18.583 4.812C18.9723 4.43733 19.4447 4.25 20 4.25C20.5553 4.25 21.0277 4.43733 21.417 4.812C21.8057 5.18733 22 5.65267 22 6.208V7.375C24.222 7.847 26.0347 8.958 27.438 10.708C28.8407 12.458 29.542 14.472 29.542 16.75V29.333H32.917V31.458H7.08301ZM20 36.333C19.1947 36.333 18.4933 36.0413 17.896 35.458C17.2987 34.8747 17 34.1663 17 33.333H23C23 34.1663 22.7083 34.8747 22.125 35.458C21.5417 36.0413 20.8333 36.333 20 36.333Z" fill="#315C57"/>
</g>
</svg>
