<svg width="40" height="40" viewBox="0 0 40 40" fill="none" xmlns="http://www.w3.org/2000/svg">
<mask id="mask0_221_343" style="mask-type:alpha" maskUnits="userSpaceOnUse" x="0" y="0" width="40" height="40">
<rect width="40" height="40" fill="#D9D9D9"/>
</mask>
<g mask="url(#mask0_221_343)">
<path d="M16.5 35.833L15.792 30.792C15.264 30.6253 14.7013 30.3753 14.104 30.042C13.5067 29.7087 12.986 29.3473 12.542 28.958L7.875 31.042L4.375 24.875L8.542 21.792C8.486 21.514 8.45133 21.2153 8.438 20.896C8.424 20.5767 8.417 20.278 8.417 20C8.417 19.75 8.424 19.4653 8.438 19.146C8.45133 18.8267 8.486 18.514 8.542 18.208L4.375 15.125L7.875 8.99999L12.542 11.042C13.014 10.6527 13.5417 10.2983 14.125 9.97899C14.7083 9.65966 15.264 9.40266 15.792 9.20799L16.5 4.16699H23.5L24.208 9.20799C24.764 9.43066 25.3197 9.69466 25.875 9.99999C26.4303 10.3053 26.9303 10.6527 27.375 11.042L32.125 8.99999L35.625 15.125L31.375 18.208C31.4583 18.514 31.507 18.8197 31.521 19.125C31.535 19.4303 31.542 19.722 31.542 20C31.542 20.278 31.528 20.5627 31.5 20.854C31.472 21.146 31.4303 21.4587 31.375 21.792L35.583 24.875L32.083 31.042L27.375 28.917C26.903 29.3337 26.396 29.7087 25.854 30.042C25.3127 30.3753 24.764 30.6253 24.208 30.792L23.5 35.833H16.5ZM19.958 24.792C21.2913 24.792 22.4303 24.3267 23.375 23.396C24.3197 22.4653 24.792 21.3333 24.792 20C24.792 18.6667 24.3197 17.5347 23.375 16.604C22.4303 15.6733 21.2913 15.208 19.958 15.208C18.6247 15.208 17.4927 15.6733 16.562 16.604C15.632 17.5347 15.167 18.6667 15.167 20C15.167 21.3333 15.632 22.4653 16.562 23.396C17.4927 24.3267 18.6247 24.792 19.958 24.792Z" fill="#315C57"/>
</g>
</svg>
