<svg width="40" height="40" viewBox="0 0 40 40" fill="none" xmlns="http://www.w3.org/2000/svg">
<mask id="mask0_221_316" style="mask-type:alpha" maskUnits="userSpaceOnUse" x="0" y="0" width="40" height="40">
<rect width="40" height="40" fill="#D9D9D9"/>
</mask>
<g mask="url(#mask0_221_316)">
<path d="M17.583 27.042L28.792 15.833L27.25 14.292L17.583 23.958L12.708 19.083L11.167 20.625L17.583 27.042ZM20 35.833C17.8333 35.833 15.7847 35.4163 13.854 34.583C11.9233 33.7497 10.2427 32.618 8.81199 31.188C7.38199 29.7573 6.25033 28.0767 5.41699 26.146C4.58366 24.2153 4.16699 22.1667 4.16699 20C4.16699 17.8053 4.58366 15.743 5.41699 13.813C6.25033 11.8823 7.38199 10.2087 8.81199 8.79199C10.2427 7.37533 11.9233 6.25033 13.854 5.41699C15.7847 4.58366 17.8333 4.16699 20 4.16699C22.1947 4.16699 24.2573 4.58366 26.188 5.41699C28.118 6.25033 29.7913 7.37533 31.208 8.79199C32.6247 10.2087 33.7497 11.8823 34.583 13.813C35.4163 15.743 35.833 17.8053 35.833 20C35.833 22.1667 35.4163 24.2153 34.583 26.146C33.7497 28.0767 32.6247 29.7573 31.208 31.188C29.7913 32.618 28.118 33.7497 26.188 34.583C24.2573 35.4163 22.1947 35.833 20 35.833Z" fill="#315C57"/>
</g>
</svg>
