<svg width="40" height="40" viewBox="0 0 40 40" fill="none" xmlns="http://www.w3.org/2000/svg">
<mask id="mask0_575_723" style="mask-type:alpha" maskUnits="userSpaceOnUse" x="0" y="0" width="40" height="40">
<rect width="40" height="40" fill="#D9D9D9"/>
</mask>
<g mask="url(#mask0_575_723)">
<path d="M8.45801 34.167C7.73601 34.167 7.11801 33.91 6.60401 33.396C6.09001 32.882 5.83301 32.264 5.83301 31.542V8.458C5.83301 7.736 6.09001 7.118 6.60401 6.604C7.11801 6.09 7.73601 5.833 8.45801 5.833H16.625C16.625 4.91633 16.9513 4.13167 17.604 3.479C18.2567 2.82633 19.0553 2.5 20 2.5C20.972 2.5 21.7847 2.82633 22.438 3.479C23.0907 4.13167 23.403 4.91633 23.375 5.833H31.542C32.264 5.833 32.882 6.09 33.396 6.604C33.91 7.118 34.167 7.736 34.167 8.458V31.542C34.167 32.264 33.91 32.882 33.396 33.396C32.882 33.91 32.264 34.167 31.542 34.167H8.45801ZM12.083 27.708H22.792V25.625H12.083V27.708ZM12.083 21.042H27.917V18.958H12.083V21.042ZM12.083 14.375H27.917V12.292H12.083V14.375ZM20 7.083C20.3613 7.083 20.6807 6.958 20.958 6.708C21.236 6.458 21.375 6.13867 21.375 5.75C21.375 5.36133 21.236 5.042 20.958 4.792C20.6807 4.542 20.3613 4.417 20 4.417C19.6387 4.417 19.326 4.542 19.062 4.792C18.7987 5.042 18.667 5.36133 18.667 5.75C18.667 6.13867 18.7987 6.458 19.062 6.708C19.326 6.958 19.6387 7.083 20 7.083Z" fill="#EAF9F3"/>
</g>
</svg>
