<svg width="62" height="64" viewBox="0 0 62 64" fill="none" xmlns="http://www.w3.org/2000/svg">
<ellipse cx="31" cy="32" rx="31" ry="32" fill="#315C57"/>
<mask id="mask0_221_353" style="mask-type:alpha" maskUnits="userSpaceOnUse" x="11" y="12" width="40" height="40">
<rect x="11" y="12" width="40" height="40" fill="#D9D9D9"/>
</mask>
<g mask="url(#mask0_221_353)">
<path d="M17.792 47.833C17.0693 47.833 16.4513 47.576 15.938 47.062C15.424 46.5487 15.167 45.9307 15.167 45.208V27.125C15.167 26.403 15.424 25.785 15.938 25.271C16.4513 24.757 17.0693 24.5 17.792 24.5H27.167V18.25C27.167 17.6947 27.3753 17.2087 27.792 16.792C28.2087 16.3753 28.7087 16.167 29.292 16.167H32.75C33.3333 16.167 33.8263 16.3753 34.229 16.792C34.6317 17.2087 34.833 17.6947 34.833 18.25V24.5H44.208C44.9307 24.5 45.5487 24.757 46.062 25.271C46.576 25.785 46.833 26.403 46.833 27.125V45.208C46.833 45.9307 46.576 46.5487 46.062 47.062C45.5487 47.576 44.9307 47.833 44.208 47.833H17.792ZM21.083 41.375H30.542V40.958C30.542 40.514 30.4307 40.1113 30.208 39.75C29.986 39.3887 29.6807 39.1387 29.292 39C28.6253 38.722 28.028 38.5347 27.5 38.438C26.972 38.3407 26.4303 38.292 25.875 38.292C25.3197 38.292 24.7503 38.3473 24.167 38.458C23.5837 38.5693 22.9863 38.75 22.375 39C21.9863 39.1667 21.674 39.4237 21.438 39.771C21.2013 40.1183 21.083 40.514 21.083 40.958V41.375ZM34.5 38.708H41.375V36.917H34.5V38.708ZM25.875 36.917C26.4583 36.917 26.9583 36.7087 27.375 36.292C27.7917 35.8753 28 35.3753 28 34.792C28 34.2087 27.7917 33.7087 27.375 33.292C26.9583 32.8753 26.4583 32.667 25.875 32.667C25.2917 32.667 24.7917 32.8753 24.375 33.292C23.9583 33.7087 23.75 34.2087 23.75 34.792C23.75 35.3753 23.9583 35.8753 24.375 36.292C24.7917 36.7087 25.2917 36.917 25.875 36.917ZM34.5 34.375H41.375V32.583H34.5V34.375ZM29.292 26.583H32.75V18.25H29.292V26.583Z" fill="white"/>
</g>
</svg>
