<svg width="62" height="64" viewBox="0 0 62 64" fill="none" xmlns="http://www.w3.org/2000/svg">
<ellipse cx="31" cy="32" rx="31" ry="32" fill="#315C57"/>
<mask id="mask0_241_166" style="mask-type:alpha" maskUnits="userSpaceOnUse" x="11" y="12" width="40" height="40">
<rect x="11" y="12" width="40" height="40" fill="#D9D9D9"/>
</mask>
<g mask="url(#mask0_241_166)">
<path d="M18.083 43.458V41.333H21.5V28.75C21.5 26.472 22.1943 24.458 23.583 22.708C24.9723 20.958 26.778 19.847 29 19.375V18.208C29 17.6527 29.1943 17.1873 29.583 16.812C29.9723 16.4373 30.4447 16.25 31 16.25C31.5553 16.25 32.0277 16.4373 32.417 16.812C32.8057 17.1873 33 17.6527 33 18.208V19.375C35.222 19.847 37.0347 20.958 38.438 22.708C39.8407 24.458 40.542 26.472 40.542 28.75V41.333H43.917V43.458H18.083ZM31 48.333C30.1947 48.333 29.4933 48.0413 28.896 47.458C28.2987 46.8747 28 46.1663 28 45.333H34C34 46.1663 33.7083 46.8747 33.125 47.458C32.5417 48.0413 31.8333 48.333 31 48.333Z" fill="white"/>
</g>
</svg>
