<svg width="62" height="64" viewBox="0 0 62 64" fill="none" xmlns="http://www.w3.org/2000/svg">
<ellipse cx="31" cy="32" rx="31" ry="32" fill="#315C57"/>
<mask id="mask0_221_351" style="mask-type:alpha" maskUnits="userSpaceOnUse" x="11" y="12" width="40" height="40">
<rect x="11" y="12" width="40" height="40" fill="#D9D9D9"/>
</mask>
<g mask="url(#mask0_221_351)">
<path d="M28.583 39.042L39.792 27.833L38.25 26.292L28.583 35.958L23.708 31.083L22.167 32.625L28.583 39.042ZM31 47.833C28.8333 47.833 26.7847 47.4163 24.854 46.583C22.9233 45.7497 21.2427 44.618 19.812 43.188C18.382 41.7573 17.2503 40.0767 16.417 38.146C15.5837 36.2153 15.167 34.1667 15.167 32C15.167 29.8053 15.5837 27.743 16.417 25.813C17.2503 23.8823 18.382 22.2087 19.812 20.792C21.2427 19.3753 22.9233 18.2503 24.854 17.417C26.7847 16.5837 28.8333 16.167 31 16.167C33.1947 16.167 35.2573 16.5837 37.188 17.417C39.118 18.2503 40.7913 19.3753 42.208 20.792C43.6247 22.2087 44.7497 23.8823 45.583 25.813C46.4163 27.743 46.833 29.8053 46.833 32C46.833 34.1667 46.4163 36.2153 45.583 38.146C44.7497 40.0767 43.6247 41.7573 42.208 43.188C40.7913 44.618 39.118 45.7497 37.188 46.583C35.2573 47.4163 33.1947 47.833 31 47.833Z" fill="white"/>
</g>
</svg>
